<?xml version="1.0" encoding="UTF-8"?>
<svg width="620px" height="669px" viewBox="0 0 620 669" version="1.1" xmlns="http://www.w3.org/2000/svg" xmlns:xlink="http://www.w3.org/1999/xlink">
    <!-- Generator: Sketch 47.1 (45422) - http://www.bohemiancoding.com/sketch -->
    <title>Branding</title>
    <desc>Created with Sketch.</desc>
    <defs></defs>
    <g id="Website" stroke="none" stroke-width="1" fill="none" fill-rule="evenodd">
        <g id="Desktop" transform="translate(-199.000000, -269.000000)">
            <g id="Pagina">
                <g id="Branding" transform="translate(199.000000, 269.000000)">
                    <circle id="circulo_externo" stroke="#979797" cx="315.5" cy="332.5" r="254.5"></circle>
                    <g id="trabalho" transform="translate(452.000000, 439.000000)">
                        <ellipse id="Oval-3" stroke="#DEB887" stroke-width="2" fill="#FFDEAD" cx="47" cy="48.5" rx="47" ry="48.5"></ellipse>
                        <g id="004-clipboard" transform="translate(37.000000, 29.000000)" fill-rule="nonzero">
                            <path d="M4.28575315,4.68965517 L55.7142469,4.68965517 C58.0713567,4.68965517 60,6.58890122 60,8.91038055 L60,63.7792746 C60,66.10062 58.0714927,68 55.7142469,68 L4.28575315,68 C1.92864333,68 0,66.100754 0,63.7792746 L0,8.91038055 C0.00013602111,6.58890122 1.92864333,4.68965517 4.28575315,4.68965517 Z" id="Shape" fill="#E2574C"></path>
                            <path d="M55.7143829,4.68965517 L4.28575315,4.68965517 C1.92864333,4.68965517 0,6.63760237 0,9.01860991 L0,11.7241379 C0,9.34326778 1.9285073,7.39518319 4.28575315,7.39518319 L55.7142469,7.39518319 C58.0713567,7.39518319 60,9.34313039 60,11.7241379 L60,9.01847252 C60,6.63760237 58.0714927,4.68965517 55.7143829,4.68965517 Z" id="Shape" fill="#D05046"></path>
                            <path d="M10.364165,11.7241379 L50.8123056,11.7241379 C51.9832251,11.7241379 52.9411765,12.6875234 52.9411765,13.8650852 L52.9411765,58.82457 C52.9411765,60.0021317 51.9832251,60.9655172 50.8123056,60.9655172 L10.364165,60.9655172 C9.19324546,60.9655172 8.23529412,60.0021317 8.23529412,58.82457 L8.23529412,13.8650852 C8.23529412,12.6875234 9.19324546,11.7241379 10.364165,11.7241379 Z" id="Shape" fill="#F0DDAB"></path>
                            <path d="M14.0073614,8.20689655 L45.9926386,8.20689655 C46.5789929,8.20689655 47.0588235,8.66858007 47.0588235,9.23275862 L47.0588235,13.3362069 C47.0588235,15.0288728 45.6194671,16.4137931 43.8602687,16.4137931 L16.1397313,16.4137931 C14.3805329,16.4137931 12.9411765,15.0288728 12.9411765,13.3362069 L12.9411765,9.23275862 C12.9411765,8.66858007 13.4208717,8.20689655 14.0073614,8.20689655 Z" id="Shape" fill="#CCD0D2"></path>
                            <path d="M20.4463029,26.7523757 L43.6511064,26.7523757 C44.2311863,26.7523757 44.7058824,26.272699 44.7058824,25.6865327 C44.7058824,25.1003664 44.2311863,24.6206897 43.6511064,24.6206897 L20.4463029,24.6206897 C19.866223,24.6206897 19.3915269,25.1003664 19.3915269,25.6865327 C19.3915269,26.272699 19.8660891,26.7523757 20.4463029,26.7523757 Z M43.6511064,29.9497695 L20.4463029,29.9497695 C19.866223,29.9497695 19.3915269,30.4294462 19.3915269,31.0156125 C19.3915269,31.6017788 19.866223,32.0814555 20.4463029,32.0814555 L43.6511064,32.0814555 C44.2311863,32.0814555 44.7058824,31.6017788 44.7058824,31.0156125 C44.7058824,30.4294462 44.2311863,29.9497695 43.6511064,29.9497695 Z M43.6511064,35.2789846 L20.4463029,35.2789846 C19.866223,35.2789846 19.3915269,35.7586613 19.3915269,36.3448276 C19.3915269,36.9309939 19.866223,37.4106706 20.4463029,37.4106706 L43.6511064,37.4106706 C44.2311863,37.4106706 44.7058824,36.9309939 44.7058824,36.3448276 C44.7058824,35.7586613 44.2311863,35.2789846 43.6511064,35.2789846 Z M16.227199,24.6206897 L15.172423,24.6206897 C14.5923431,24.6206897 14.1176471,25.1003664 14.1176471,25.6865327 C14.1176471,26.272699 14.5923431,26.7523757 15.172423,26.7523757 L16.227199,26.7523757 C16.8072789,26.7523757 17.281975,26.272699 17.281975,25.6865327 C17.281975,25.1002311 16.8072789,24.6206897 16.227199,24.6206897 Z M16.227199,29.9497695 L15.172423,29.9497695 C14.5923431,29.9497695 14.1176471,30.4294462 14.1176471,31.0156125 C14.1176471,31.6017788 14.5923431,32.0814555 15.172423,32.0814555 L16.227199,32.0814555 C16.8072789,32.0814555 17.281975,31.6017788 17.281975,31.0156125 C17.281975,30.4294462 16.8072789,29.9497695 16.227199,29.9497695 Z M16.227199,35.2789846 L15.172423,35.2789846 C14.5923431,35.2789846 14.1176471,35.7586613 14.1176471,36.3448276 C14.1176471,36.9309939 14.5923431,37.4106706 15.172423,37.4106706 L16.227199,37.4106706 C16.8072789,37.4106706 17.281975,36.9309939 17.281975,36.3448276 C17.281975,35.7586613 16.8072789,35.2789846 16.227199,35.2789846 Z M43.6511064,40.6081997 L20.4463029,40.6081997 C19.866223,40.6081997 19.3915269,41.0878764 19.3915269,41.6740427 C19.3915269,42.260209 19.866223,42.7398857 20.4463029,42.7398857 L43.6511064,42.7398857 C44.2311863,42.7398857 44.7058824,42.260209 44.7058824,41.6740427 C44.7058824,41.0878764 44.2311863,40.6081997 43.6511064,40.6081997 Z M43.6511064,45.9372795 L20.4463029,45.9372795 C19.866223,45.9372795 19.3915269,46.4169562 19.3915269,47.0031225 C19.3915269,47.5892888 19.866223,48.0689655 20.4463029,48.0689655 L43.6511064,48.0689655 C44.2311863,48.0689655 44.7058824,47.5892888 44.7058824,47.0031225 C44.7058824,46.4169562 44.2311863,45.9372795 43.6511064,45.9372795 Z M16.227199,40.6081997 L15.172423,40.6081997 C14.5923431,40.6081997 14.1176471,41.0878764 14.1176471,41.6740427 C14.1176471,42.260209 14.5923431,42.7398857 15.172423,42.7398857 L16.227199,42.7398857 C16.8072789,42.7398857 17.281975,42.260209 17.281975,41.6740427 C17.281975,41.0878764 16.8072789,40.6081997 16.227199,40.6081997 Z M16.227199,45.9372795 L15.172423,45.9372795 C14.5923431,45.9372795 14.1176471,46.4169562 14.1176471,47.0031225 C14.1176471,47.5892888 14.5923431,48.0689655 15.172423,48.0689655 L16.227199,48.0689655 C16.8072789,48.0689655 17.281975,47.5892888 17.281975,47.0031225 C17.281975,46.4169562 16.8072789,45.9372795 16.227199,45.9372795 Z" id="Shape" fill="#D8C69A"></path>
                            <path d="M23.1579158,0 L36.8420842,0 C38.5789312,0 40,1.3849203 40,3.07758621 L40,8.20689655 L20,8.20689655 L20,3.07758621 C20,1.3849203 21.4210688,0 23.1579158,0 Z" id="Shape" fill="#CCD0D2"></path>
                            <path d="M12.9411765,9.37931034 L12.9411765,11.7241379 L47.0588235,11.7241379 L47.0588235,9.37931034 C47.0588235,8.73453485 46.5789929,8.20689655 45.9926386,8.20689655 L14.0073614,8.20689655 C13.4208717,8.20689655 12.9411765,8.73453485 12.9411765,9.37931034 Z" id="Shape" fill="#BCC0C2"></path>
                            <polygon id="Shape" fill="#AEB1B3" points="20 7.03448276 40 7.03448276 40 9.37931034 20 9.37931034"></polygon>
                        </g>
                        <text id="Trabalho" font-family="Roboto-Light, Roboto" font-size="20" font-weight="300" fill="#000000">
                            <tspan x="16.140625" y="137">Trabalho</tspan>
                        </text>
                    </g>
                    <g id="educacao" transform="translate(441.000000, 92.000000)">
                        <ellipse id="Oval-3" stroke="#A9A9A9" stroke-width="2" fill="#D3D3D3" cx="47" cy="67.5" rx="47" ry="48.5"></ellipse>
                        <g id="007-bookshelf" transform="translate(37.000000, 0.000000)" fill-rule="nonzero">
                            <path d="M12.7339592,8.22807018 L21.3537601,8.22807018 C22.545407,8.22807018 23.5087719,9.16363306 23.5087719,10.3158827 L23.5087719,51.9864109 C23.5087719,53.1386605 22.545407,54.0701754 21.3537601,54.0701754 L12.7339592,54.0701754 C11.5423123,54.0701754 10.5789474,53.1386605 10.5789474,51.9864109 L10.5789474,10.3139778 C10.5789474,9.16387118 11.5423123,8.22807018 12.7339592,8.22807018 Z" id="Shape" fill="#3F95D4"></path>
                            <path d="M14.497076,51.9864109 L14.497076,10.3139778 C14.497076,9.16387118 15.3728456,8.22807018 16.4561404,8.22807018 L12.5380117,8.22807018 C11.454717,8.22807018 10.5789474,9.16363306 10.5789474,10.3139778 L10.5789474,51.9864109 C10.5789474,53.1386605 11.454717,54.0701754 12.5380117,54.0701754 L16.4561404,54.0701754 C15.3728456,54.0701754 14.497076,53.1367556 14.497076,51.9864109 Z" id="Shape" fill="#367FB4"></path>
                            <polygon id="Shape" fill="#D99666" points="0 54.0701754 67 54.0701754 67 67 0 67"></polygon>
                            <polygon id="Shape" fill="#F7CB8B" points="10.5789474 39.9649123 23.5087719 39.9649123 23.5087719 48.1929825 10.5789474 48.1929825"></polygon>
                            <path d="M25.5658189,0 L37.9078654,0 C39.0453411,0 39.9649123,0.933719461 39.9649123,2.08369871 L39.9649123,51.9905167 C39.9649123,53.140496 39.0453411,54.0701754 37.9078654,54.0701754 L25.5658189,54.0701754 C24.4283431,54.0701754 23.5087719,53.140496 23.5087719,51.9905167 L23.5087719,2.08179753 C23.5087719,0.933719461 24.4283431,0 25.5658189,0 Z" id="Shape" fill="#349886"></path>
                            <path d="M29.3859649,45.8421053 L34.0877193,45.8421053 L34.0877193,16.5863732 L29.3859649,16.5863732 C29.3859649,16.5863732 29.3859649,45.8421053 29.3859649,45.8421053 Z M29.3859649,8.22807018 L29.3859649,12.4072217 L34.0877193,12.4072217 L34.0877193,8.22807018 L29.3859649,8.22807018 Z" id="Shape" fill="#9ACCC3"></path>
                            <path d="M42.0219592,12.9298246 L54.3640057,12.9298246 C55.5014814,12.9298246 56.4210526,13.8797822 56.4210526,15.0456503 L56.4210526,53.1297883 C56.4210526,54.2997667 55.5014814,55.245614 54.3640057,55.245614 L42.0219592,55.245614 C40.8844835,55.245614 39.9649123,54.2997667 39.9649123,53.1297883 L39.9649123,15.0456503 C39.9649123,13.8797822 40.8844835,12.9298246 42.0219592,12.9298246 Z" id="Shape" fill="#E2574C"></path>
                            <rect id="Rectangle-path" fill="#D2AD77" x="10.5789474" y="39.9649123" width="4.70175439" height="8.22807018"></rect>
                            <path d="M27.4269006,51.9902882 L27.4269006,2.08178838 C27.4269006,0.933953005 28.3026702,0 29.3859649,0 L25.4678363,0 C24.3845415,0 23.5087719,0.933715358 23.5087719,2.08178838 L23.5087719,51.9905259 C23.5087719,53.1405001 24.3845415,54.0701754 25.4678363,54.0701754 L29.3859649,54.0701754 C28.3026702,54.0699378 27.4269006,53.1383613 27.4269006,51.9902882 Z" id="Shape" fill="#2C8172"></path>
                            <path d="M43.8830409,53.1297883 L43.8830409,15.0456503 C43.8830409,13.8797822 44.7588105,12.9298246 45.8421053,12.9298246 L41.9239766,12.9298246 C40.8406819,12.9298246 39.9649123,13.8797822 39.9649123,15.0456503 L39.9649123,53.1297883 C39.9649123,54.2997667 40.8406819,55.245614 41.9239766,55.245614 L45.8421053,55.245614 C44.7588105,55.245614 43.8830409,54.2978324 43.8830409,53.1297883 Z" id="Shape" fill="#C04A40"></path>
                            <path d="M39.9649123,34.0877193 L56.4210526,34.0877193 L56.4210526,25.4676721 L39.9649123,25.4676721 L39.9649123,34.0877193 Z M39.9649123,21.1578947 L39.9649123,23.3170929 L56.4210526,23.3170929 L56.4210526,21.1578947 L39.9649123,21.1578947 Z" id="Shape" fill="#F7CB8B"></path>
                            <g id="Group" transform="translate(39.964912, 21.157895)" fill="#D2AD77">
                                <rect id="Rectangle-path" x="0.0694814815" y="0.121875569" width="4.57167251" height="2.0994204"></rect>
                                <rect id="Rectangle-path" x="0.0694814815" y="4.31233593" width="4.57167251" height="8.38116017"></rect>
                            </g>
                        </g>
                        <text id="Educação" font-family="Roboto-Light, Roboto" font-size="20" font-weight="300" fill="#000000">
                            <tspan x="3.73828125" y="152">Educação</tspan>
                        </text>
                    </g>
                    <g id="previdencia" transform="translate(61.000000, 435.000000)">
                        <ellipse id="Oval-3" stroke="#DEB887" stroke-width="2" fill="#FFDEAD" cx="59" cy="48.5" rx="47" ry="48.5"></ellipse>
                        <g id="001-couple" transform="translate(0.000000, 31.000000)" fill-rule="nonzero">
                            <path d="M38.3513223,37.4626222 L31.2838341,35.6888889 L11.3758548,35.6888889 L4.30836667,37.4626222 C1.77632056,38.0981059 0,40.3820999 0,43.00226 L0,69.9502035 C0,70.7385468 0.636588743,71.3777778 1.42202074,71.3777778 L41.2379793,71.3777778 C42.0232557,71.3777778 42.66,70.7387029 42.66,69.9502035 L42.66,43.0024162 C42.66,40.3820999 40.8835239,38.0981059 38.3513223,37.4626222 Z" id="Shape" fill="#0096DC"></path>
                            <path d="M38.3513223,38.4550704 L33.8760707,37.3111111 C33.0061854,39.4837272 29.6832637,46.7158144 22.1460716,52.0809563 C21.6567708,52.4292492 21.0030737,52.4292492 20.5137729,52.0809563 C12.9765808,46.7158144 9.65381463,39.4838862 8.78377373,37.3111111 L4.30836667,38.4552294 C1.77632056,39.1025135 0,41.4289191 0,44.0977333 L0,71.5459169 C0,72.348899 0.636588743,73 1.42202074,73 L42.66,73 L42.66,44.0978924 C42.66,41.4289191 40.8835239,39.1023544 38.3513223,38.4550704 Z" id="Shape" fill="#B48764"></path>
                            <rect id="Rectangle-path" fill="#D29B6E" x="14.22" y="29.2" width="14.22" height="8.11111111"></rect>
                            <path d="M35.0470871,14.8114111 L35.0470871,10.3680526 C35.0470871,4.64180953 30.5455041,0 24.9925987,0 L19.2472442,0 C13.6943388,0 9.19275584,4.64180953 9.19275584,10.3680526 L9.19275584,14.8115731 C7.606189,14.8115731 6.32,16.1377118 6.32,17.7739201 C6.32,19.4099664 7.606189,20.7362671 9.19275584,20.7362671 C9.19275584,28.0983944 14.9803707,34.0666667 22.12,34.0666667 C29.2596293,34.0666667 35.0472442,28.0985564 35.0472442,20.7362671 C36.633811,20.7362671 37.92,19.4099664 37.92,17.7739201 C37.9196858,16.1377118 36.6334968,14.8114111 35.0470871,14.8114111 Z" id="Shape" fill="#F0C087"></path>
                            <path d="M16.1509234,20.7361051 L16.1509234,10.3680526 C16.1509234,4.89193879 20.1793608,0.418610122 25.2798464,0.0374221897 C25.0469728,0.019926101 24.8147136,0 24.5776924,0 L18.96,0 C13.5304805,0 9.12892302,4.64180953 9.12892302,10.3680526 L9.12892302,14.8115731 C7.5776098,14.8115731 6.32,16.1377118 6.32,17.7739201 C6.32,19.4099664 7.5776098,20.7362671 9.12892302,20.7362671 C9.12892302,28.0983944 14.7879367,34.0666667 21.768923,34.0666667 C22.988591,34.0666667 24.1641728,33.8745337 25.28,33.534494 C20.0091602,31.9282558 16.1509234,26.8119459 16.1509234,20.7361051 Z" id="Shape" fill="#E6AF78"></path>
                            <path d="M21.3300491,27.5777778 C19.9362009,27.5777778 18.6041319,26.7682827 17.6745638,25.3554362 C17.215468,24.6600119 17.3030245,23.6383415 17.8673897,23.0745512 C18.4331951,22.5089868 19.262534,22.6152519 19.7188937,23.3120953 C20.5881227,24.6300306 22.0718315,24.6300306 22.9410606,23.3120953 C23.3975642,22.6150745 24.2256071,22.5089868 24.7925645,23.0745512 C25.3570737,23.6385189 25.4444863,24.6601893 24.9853905,25.3554362 C24.0558223,26.7682827 22.7237533,27.5777778 21.3300491,27.5777778 Z" id="Shape" fill="#D29B6E"></path>
                            <g id="Group" transform="translate(14.220000, 16.222222)" fill="#64463C">
                                <path d="M1.4793437,4.77050805 C0.698171087,4.77050805 0.066153913,4.08430805 0.066153913,3.23616552 L0.066153913,1.70182299 C0.066153913,0.85368046 0.698171087,0.16748046 1.4793437,0.16748046 C2.2605163,0.16748046 2.89253348,0.85368046 2.89253348,1.70182299 L2.89253348,3.23616552 C2.89253348,4.08414023 2.2605163,4.77050805 1.4793437,4.77050805 Z" id="Shape"></path>
                                <path d="M12.7847074,4.77050805 C12.0035348,4.77050805 11.3715176,4.08430805 11.3715176,3.23616552 L11.3715176,1.70182299 C11.3715176,0.85368046 12.0035348,0.16748046 12.7847074,0.16748046 C13.56588,0.16748046 14.1978972,0.85368046 14.1978972,1.70182299 L14.1978972,3.23616552 C14.1978972,4.08414023 13.56588,4.77050805 12.7847074,4.77050805 Z" id="Shape"></path>
                            </g>
                            <g id="Group" transform="translate(3.160000, 3.244444)" fill="#D5DCED">
                                <path d="M8.080594,3.33684622 C8.080594,1.58934519 6.787048,0.172690963 5.191406,0.172690963 C3.595764,0.172690963 2.302218,1.58917215 2.302218,3.33684622 C2.302218,3.98140919 2.480284,4.57942519 2.782538,5.07950222 C1.259418,5.54393363 0.135406,7.05783467 0.135406,8.87403141 C0.135406,11.0582779 1.75222,12.829139 3.746812,12.829139 C5.741404,12.829139 7.358218,11.0582779 7.358218,8.87403141 C7.358218,7.84117333 6.988182,6.90884978 6.396314,6.20458904 C7.388238,5.70330074 8.080594,4.61161007 8.080594,3.33684622 Z" id="Shape"></path>
                                <path d="M28.304594,3.33684622 C28.304594,1.58934519 29.59814,0.172690963 31.193782,0.172690963 C32.789424,0.172690963 34.08297,1.58917215 34.08297,3.33684622 C34.08297,3.98140919 33.904904,4.57942519 33.60265,5.07950222 C35.12577,5.54393363 36.249782,7.05783467 36.249782,8.87403141 C36.249782,11.0582779 34.632968,12.829139 32.638376,12.829139 C30.643784,12.829139 29.02697,11.0582779 29.02697,8.87403141 C29.02697,7.84117333 29.397006,6.90884978 29.988874,6.20458904 C28.99695,5.70330074 28.304594,4.61161007 28.304594,3.33684622 Z" id="Shape"></path>
                            </g>
                            <g id="Group" transform="translate(0.000000, 40.555556)" fill="#0096DC">
                                <path d="M6.43281775,5.52700654 L1.09706007,0.0566187364 C0.408605236,1.02581699 0,2.20717647 0,3.47298693 L0,30.9219412 C0,31.7249412 0.634935927,32.3760566 1.41832865,32.3760566 L8.5098168,32.3760566 L8.5098168,10.6678606 C8.5098168,8.7396427 7.76272385,6.89046841 6.43281775,5.52700654 Z" id="Shape"></path>
                                <path d="M36.1164214,5.52700654 L41.4521791,0.0566187364 C42.1406339,1.02581699 42.5492391,2.20717647 42.5492391,3.47298693 L42.5492391,32.3760566 L34.0394223,32.3760566 L34.0394223,10.6678606 C34.0394223,8.7396427 34.7865153,6.89046841 36.1164214,5.52700654 Z" id="Shape"></path>
                            </g>
                            <path d="M22.12,48.6666667 L22.12,48.6666667 C21.2474833,48.6666667 20.54,48.0441896 20.54,47.2761688 L20.54,38.9333333 L23.7,38.9333333 L23.7,47.2761688 C23.7,48.0441896 22.9925167,48.6666667 22.12,48.6666667 Z" id="Shape" fill="#007DC3"></path>
                            <g id="Group" transform="translate(11.060000, 34.066667)" fill="#00AAF0">
                                <path d="M2.78054279,0.260859127 L10.2131567,3.64145437 L6.97340961,7.57099802 C6.40242946,8.26348413 5.26651969,8.27970635 4.67197426,7.60373214 L0.0227691473,2.31717063 L0.827491318,0.853115079 C1.18702093,0.199011905 2.06148357,-0.0661924603 2.78054279,0.260859127 Z" id="Shape"></path>
                                <path d="M17.6456115,0.260859127 L10.2129975,3.64145437 L13.4527447,7.57099802 C14.0237248,8.26348413 15.1596346,8.27970635 15.75418,7.60373214 L20.4033851,2.31717063 L19.5986629,0.853115079 C19.2392926,0.199011905 18.3648299,-0.0661924603 17.6456115,0.260859127 Z" id="Shape"></path>
                            </g>
                            <g id="Group" transform="translate(42.660000, 34.066667)" fill="#C7CFE2">
                                <path d="M26.2423636,0.132095238 C28.5269575,0.132095238 30.3791555,2.02932275 30.3791555,4.36980317 C30.3791555,4.4560127 30.3593984,4.53650582 30.3544214,4.62147937 C31.9701365,5.19821799 33.1370168,6.75570582 33.1370168,8.60751111 C33.1370168,10.947837 31.2849695,12.845219 29.0002249,12.845219 L22.1057225,12.845219 L22.1057225,4.36995767 C22.1055717,2.02932275 23.9577698,0.132095238 26.2423636,0.132095238 Z" id="Shape"></path>
                                <path d="M6.93763636,0.132095238 C4.65304255,0.132095238 2.80084445,2.02932275 2.80084445,4.36980317 C2.80084445,4.4560127 2.82060164,4.53650582 2.82557864,4.62147937 C1.20986345,5.19821799 0.0429831818,6.75570582 0.0429831818,8.60751111 C0.0429831818,10.947837 1.89503045,12.845219 4.17977509,12.845219 L11.0742775,12.845219 L11.0742775,4.36995767 C11.0744283,2.02932275 9.22223018,0.132095238 6.93763636,0.132095238 Z" id="Shape"></path>
                            </g>
                            <path d="M74.5659707,47.4391055 L66.6662793,44.1215223 C65.8630098,43.7840778 65.2671152,43.0869949 65.0191602,42.2486486 L64.892791,38.9333333 L53.6070547,38.9333333 L53.4805313,42.2486486 C53.2328848,43.0871569 52.6368359,43.7842398 51.8334121,44.1215223 L43.9337207,47.4391055 C41.2560527,48.5637046 39.5,51.2869125 39.5,54.315165 L39.5,71.5188406 C39.5,72.3369369 40.1315371,73 40.9107363,73 L77.5892637,72.999352 C78.3683086,72.999352 79,72.3362889 79,71.5181926 L79,54.315165 C79,51.2869125 77.2439473,48.5637046 74.5659707,47.4391055 Z" id="Shape" fill="#966D50"></path>
                            <path d="M74.5659707,46.3394718 L68.3930156,43.8 C66.1933594,46.4667389 62.916248,48.1635815 59.25,48.1635815 C55.5835977,48.1635815 52.3064863,46.4665802 50.1069844,43.8 L43.9340293,46.3394718 C41.2560527,47.4410785 39.5,50.1086109 39.5,53.0749513 L39.5,69.9269004 C39.5,70.7282709 40.1316914,71.3777778 40.9107363,71.3777778 L77.5892637,71.3773017 C78.3683086,71.3773017 79,70.7277949 79,69.9264244 L79,53.0749513 C79,50.1086109 77.2439473,47.4410785 74.5659707,46.3394718 Z" id="Shape" fill="#FFDC64"></path>
                            <ellipse id="Oval" fill="#D5DCED" cx="60.04" cy="22.7111111" rx="15.8" ry="16.2222222"></ellipse>
                            <path d="M54.1558941,22.7111111 C54.1558941,15.5585323 58.6078207,9.49957565 64.78,7.34184959 C63.2208806,6.79681287 61.5574893,6.48888889 59.8220529,6.48888889 C51.2162963,6.48888889 44.24,13.7517977 44.24,22.7111111 C44.24,31.6704245 51.2162963,38.9333333 59.8220529,38.9333333 C61.5574893,38.9333333 63.2210355,38.6255707 64.78,38.0803726 C58.6078207,35.9224853 54.1558941,29.8636899 54.1558941,22.7111111 Z" id="Shape" fill="#C7CFE2"></path>
                            <path d="M60.0400768,43.8 L60.0400768,43.8 C53.0592017,43.8 47.4,37.9037701 47.4,30.6305102 L47.4,25.7595307 C47.4,25.167523 47.7592973,24.6616197 48.2789651,24.422512 C50.7471948,23.2868304 52.644297,21.2380901 53.6415429,19.987656 C54.0862482,19.4300581 54.8612183,19.2962602 55.4378759,19.7022952 C62.4752801,24.6560181 72.68,23.589156 72.68,29.1672158 L72.68,30.6305102 C72.6801536,37.9039301 67.0209519,43.8 60.0400768,43.8 Z" id="Shape" fill="#C39772"></path>
                            <path d="M54.9564642,30.6078547 L54.9564642,19.4666667 C54.6389255,19.5317561 54.3380819,19.6882271 54.1165816,19.9469815 C53.0432972,21.1995515 51.0018584,23.2517913 48.3460044,24.3894128 C47.7866336,24.628929 47.4,25.1356964 47.4,25.7287153 L47.4,30.6080151 C47.4,37.8936986 53.4896037,43.8 61.0017679,43.8 C62.3142395,43.8 63.5792703,43.609862 64.78,43.2733531 C59.1081061,41.6837931 54.9564642,36.6206078 54.9564642,30.6078547 Z" id="Shape" fill="#B48764"></path>
                            <path d="M59.2500491,38.9333333 C57.8562009,38.9333333 56.5241319,38.1239493 55.5945638,36.7112965 C55.135468,36.0159676 55.2230245,34.9944373 55.7873897,34.4307243 C56.3531951,33.8638184 57.1812379,33.9714879 57.6388937,34.6682358 C58.5081227,35.9859904 59.9918315,35.9859904 60.8610606,34.6682358 C61.3175642,33.9713106 62.1456071,33.863641 62.7125645,34.4307243 C63.2770737,34.9946147 63.3644863,36.016145 62.9053905,36.7112965 C61.9759663,38.1239493 60.6438973,38.9333333 59.2500491,38.9333333 Z" id="Shape" fill="#966D50"></path>
                            <path d="M56.6153354,30.8222222 C56.3633419,30.8222222 56.1100525,30.7335083 55.8851303,30.5480963 C55.2809219,30.0505888 55.1176302,29.0431538 55.5225477,28.2984894 C56.3184151,26.8315165 57.710715,25.9555556 59.2497471,25.9555556 C60.7874833,25.9555556 62.1810792,26.8300971 62.9769466,28.2954732 C63.3820081,29.0399601 63.2200123,30.0475725 62.61566,30.5466769 C62.0114516,31.0441844 61.1936968,30.846175 60.7886353,30.1015106 C60.1844269,28.9893932 58.3149234,28.9893932 57.710715,30.1015106 C57.4575696,30.5686779 57.0409883,30.8222222 56.6153354,30.8222222 Z" id="Shape" fill="#707487"></path>
                            <g id="Group" transform="translate(48.980000, 24.333333)" fill="#7F8499">
                                <path d="M4.06292063,8.06939683 C1.82253,8.06939683 0,6.28726984 0,4.09654563 C0,1.90582143 1.82253,0.123694444 4.06292063,0.123694444 C6.30331125,0.123694444 8.12584125,1.90582143 8.12584125,4.09654563 C8.12584125,6.28726984 6.30331125,8.06939683 4.06292063,8.06939683 Z" id="Shape"></path>
                                <path d="M14.8970794,8.06939683 C12.6566887,8.06939683 10.8341587,6.28726984 10.8341587,4.09654563 C10.8341587,1.90582143 12.6566887,0.123694444 14.8970794,0.123694444 C17.13747,0.123694444 18.96,1.90596627 18.96,4.09669048 C18.96,6.28741468 17.13747,8.06939683 14.8970794,8.06939683 Z" id="Shape"></path>
                            </g>
                            <g id="Group" transform="translate(52.140000, 27.577778)" fill="#FFFFFF">
                                <path d="M12.7626046,0.024077193 C11.982823,0.024077193 11.3494148,0.723852632 11.3494148,1.58533801 C11.3494148,2.44682339 11.982823,3.14659883 12.7626046,3.14659883 C13.5423861,3.14659883 14.1757943,2.44682339 14.1757943,1.58533801 C14.1757943,0.723852632 13.5423861,0.024077193 12.7626046,0.024077193 Z" id="Shape"></path>
                                <path d="M1.45739543,0.024077193 C0.677613913,0.024077193 0.0442056522,0.723852632 0.0442056522,1.58533801 C0.0442056522,2.44682339 0.677613913,3.14659883 1.45739543,3.14659883 C2.23717696,3.14659883 2.87058522,2.44682339 2.87058522,1.58533801 C2.87058522,0.723852632 2.23702239,0.024077193 1.45739543,0.024077193 Z" id="Shape"></path>
                            </g>
                            <g id="Group" transform="translate(39.500000, 43.800000)" fill="#FFC850">
                                <path d="M5.81406055,10.3950888 L1.06958594,5.54943683 C0.393302734,6.66483975 -2.84217094e-14,7.96304394 -2.84217094e-14,9.33373829 L-2.84217094e-14,26.069037 C-2.84217094e-14,26.8646952 0.631537109,27.5098577 1.41073633,27.5098577 L7.05352734,27.5097001 L7.05352734,13.4513369 C7.05352734,12.3052044 6.60760938,11.2057178 5.81406055,10.3950888 Z" id="Shape"></path>
                                <path d="M33.6859395,10.3950888 L38.4304141,5.54943683 C39.1066973,6.66483975 39.5,7.96304394 39.5,9.33373829 L39.5,26.069037 C39.5,26.8646952 38.8684629,27.5098577 38.0892637,27.5098577 L32.4464727,27.5097001 L32.4464727,13.4513369 C32.4464727,12.3052044 32.8923906,11.2057178 33.6859395,10.3950888 Z" id="Shape"></path>
                                <path d="M19.75,8.77950375 C25.1548652,8.77950375 29.9095234,5.95396343 32.6881016,1.67357714 L28.8931699,0.12323327 C26.6933594,2.77148787 23.416248,4.45656889 19.75,4.45656889 C16.0835977,4.45656889 12.8064863,2.77133029 10.6069844,0.12323327 L6.81205273,1.67357714 C9.59047656,5.95396343 14.3451348,8.77950375 19.75,8.77950375 Z" id="Shape"></path>
                            </g>
                        </g>
                        <text id="Previdência" font-family="Roboto-Light, Roboto" font-size="20" font-weight="300" fill="#000000">
                            <tspan x="16.453125" y="145">Previdência</tspan>
                        </text>
                    </g>
                    <g id="midias_sociais" transform="translate(248.000000, 0.000000)">
                        <ellipse id="Oval-3" stroke="#DB7093" stroke-width="2" fill="#FFC0CB" cx="72" cy="74.5" rx="47" ry="48.5"></ellipse>
                        <g id="003-social-media" transform="translate(21.000000, 0.000000)" fill-rule="nonzero">
                            <path d="M42.4155382,0 L5.85047028,0 C2.63260022,0 0,2.63964503 0,5.86593991 L0,30.7967896 C0,34.0230845 2.63260022,36.6629157 5.85047028,36.6629157 L6.58168623,36.6629157 C7.3860609,36.6629157 10.2381373,37.029502 10.9695389,37.8362154 C13.1633725,39.5959787 11.5546231,38.5693881 14.62599,41.0625103 C14.5528313,40.9891558 18.2824411,44.4355141 18.2824411,41.0625103 L18.2824411,36.6629157 L42.4153525,36.6629157 C45.6330369,36.6629157 48.2658228,34.0232707 48.2658228,30.7967896 L48.2658228,5.86593991 C48.2658228,2.63964503 45.6332226,0 42.4155382,0 Z" id="Shape" fill="#B8D9F2"></path>
                            <path d="M30.5949768,14.1818182 L87.1265422,14.1818182 C90.3568694,14.1818182 93,16.7918027 93,19.9820292 L93,63.483244 C93,66.6732865 90.3570558,69.2834551 87.1265422,69.2834551 L57.0251641,69.2834551 C56.2176289,69.2834551 53.3543462,69.6459222 52.6200708,70.4435709 C50.4176173,72.1835606 47.6275943,74.0686108 44.5441595,76.5337189 C44.6176057,76.4611886 40.8733416,79.8688218 40.8733416,76.5337189 L40.8733416,69.2834551 L30.5949768,69.2834551 C27.3646496,69.2834551 24.721519,66.6734705 24.721519,63.483244 L24.721519,19.9818452 C24.721519,16.7918027 27.3646496,14.1818182 30.5949768,14.1818182 Z" id="Shape" fill="#55ACEE"></path>
                            <path d="M75.3417722,32.3388694 C74.1884896,32.8402656 72.8911841,33.1266997 71.5938785,33.2700077 C72.9632871,32.5538314 73.9723635,31.3360771 74.4769018,29.9751967 C73.2516992,30.691373 71.8101876,31.121297 70.3686759,31.4077311 C69.2153934,30.2616308 67.4856527,29.5454545 65.6117058,29.5454545 C62.0080182,29.5454545 59.1249949,32.1955614 59.1249949,35.4903725 C59.1249949,35.9917686 59.197098,36.4215107 59.269201,36.8512529 C53.8636696,36.6362909 49.0345965,34.201146 45.8633441,30.619719 C45.2867028,31.4792033 44.9984737,32.5536496 44.9984737,33.6280959 C44.9984737,35.7053345 46.1517562,37.495957 47.8814969,38.5702215 C46.8003175,38.5702215 45.791241,38.2837873 44.9263706,37.8540452 L44.9263706,37.9256992 C44.9263706,40.7907681 47.1606496,43.2260948 50.1157759,43.7989631 C49.5391347,43.9422711 48.9624934,44.0139251 48.3860352,44.0139251 C47.9536,44.0139251 47.5932678,43.9422711 47.1608326,43.8706171 C47.9536,46.2342898 50.4041881,47.9532584 53.2151083,48.0249124 C50.9808293,49.6007549 48.1699091,50.6033653 45.1426797,50.6033653 C44.6381415,50.6033653 44.1336033,50.6033653 43.556962,50.5317113 C46.4399853,52.2506799 49.8275468,53.1818182 53.5033374,53.1818182 C65.4676828,53.1818182 72.0264967,44.0853972 72.0264967,36.2063669 L72.0264967,35.4185366 C73.3957223,34.5592342 74.4769018,33.5566237 75.3417722,32.3388694 Z" id="Shape" fill="#FFFFFF"></path>
                        </g>
                        <text id="Mídias-Sociais" font-family="Roboto-Light, Roboto" font-size="20" font-weight="300" fill="#000000">
                            <tspan x="8.89453125" y="152">Mídias Sociais </tspan>
                        </text>
                    </g>
                    <g id="receita" transform="translate(0.000000, 284.000000)">
                        <ellipse id="Oval-3" stroke="#1E90FF" stroke-width="2" fill="#87CEFA" cx="61" cy="48.5" rx="47" ry="48.5"></ellipse>
                        <g id="005-money" transform="translate(0.000000, 7.000000)" fill-rule="nonzero">
                            <path d="M1.50218229,20.0737402 L36.7358672,13.0637681 C37.7803992,12.8533888 38.7552722,13.554475 38.9640725,14.5358889 L52.7512589,80.7094202 C52.960236,81.7609605 52.2638224,82.7423744 51.2889494,82.9525756 L15.9856054,89.9625477 C14.9410734,90.172927 13.9662004,89.4718408 13.7574001,88.4904269 L0.0400496073,22.3170736 C-0.168927519,21.2655333 0.45782706,20.2841194 1.50218229,20.0737402 Z" id="Shape" fill="#2B8272"></path>
                            <path d="M37.5298069,33.161231 L34.407862,17.3603393 C34.3399674,16.8687401 33.796983,16.5176488 33.3218931,16.5879027 L4.27438125,22.5571681 C3.79929144,22.627422 3.4599908,23.1892751 3.52788539,23.6808743 L6.64983034,39.481766 C6.71772494,39.9733651 7.26070935,40.3244564 7.73579916,40.2542025 C8.21088898,40.1839486 8.55018962,39.6220955 8.48229503,39.1304964 L5.56403385,24.242549 L32.7790811,18.6243749 L35.6973422,33.5123223 C35.7652368,34.0039214 36.3082212,34.3550127 36.7833111,34.2847588 C37.2584009,34.1444293 37.5977015,33.6528301 37.5298069,33.161231 Z" id="Shape" fill="#4B9587"></path>
                            <path d="M11.0591334,9.44285909 L46.8287045,5.925892 C47.8726175,5.85552409 48.777295,6.55902466 48.9163539,7.61400763 L57.4759814,78.5171857 C57.5455992,79.5723473 56.8495983,80.486773 55.8058619,80.5571409 L20.0362909,84.074108 C18.9923778,84.1444759 18.0877003,83.4409753 17.9486415,82.3859924 L9.38901388,11.4826357 C9.31939612,10.4978421 10.0850148,9.51304841 11.0591334,9.44285909 Z" id="Shape" fill="#359685"></path>
                            <path d="M43.0094042,9.1069138 C42.9415442,8.63435789 42.5345568,8.22933446 41.9918495,8.29686693 L12.5521732,11.132031 C12.0773258,11.1995635 11.6703384,11.6045869 11.7381983,12.1446753 L13.2982881,27.6036125 C13.3661481,28.0761684 13.7731355,28.4811919 14.3158428,28.4136594 C14.7906902,28.3461269 15.1976776,27.9411035 15.1298177,27.4010151 L13.7052756,12.8871897 L41.3134223,10.2544516 L42.7379644,24.7682771 C42.8058244,25.240833 43.2128118,25.6458564 43.7555191,25.5783239 C44.2303665,25.5107915 44.6373539,25.105768 44.569494,24.5656796 C44.5696662,24.565851 43.0094042,9.1069138 43.0094042,9.1069138 Z" id="Shape" fill="#53A697"></path>
                            <path d="M23.0375852,0 L59.0777995,0 C60.1075746,0 61,0.838922183 61,1.95760343 L61,75.0160808 C61,76.0648223 60.1762496,76.9736842 59.0777995,76.9736842 L23.0375852,76.9736842 C22.00781,76.9736842 21.1153846,76.134762 21.1153846,75.0160808 L21.1153846,1.95760343 C21.1155589,0.838922183 21.9393093,0 23.0375852,0 Z" id="Shape" fill="#3DB39E"></path>
                            <path d="M26.1988917,38.4867534 C26.1988917,46.2421451 32.3574587,52.4603667 39.8846154,52.4603667 C47.4117721,52.4603667 53.5703391,46.1722496 53.5703391,38.4867534 C53.5703391,30.8012572 47.4117721,24.5131402 39.8846154,24.5131402 C32.3574587,24.5131402 26.1988917,30.8012572 26.1988917,38.4867534 Z M32.5626516,38.137453 L33.5891373,38.137453 C33.794504,36.3907735 34.7523604,35.06329 35.7788462,34.5043029 C35.9157573,34.4344073 36.1209502,34.3645118 36.2578613,34.3645118 C36.8053319,34.3645118 37.2158914,34.7837078 37.2158914,35.2727993 C37.2158914,35.6919953 37.0105248,35.901682 36.8053319,36.0412957 C36.0526683,36.8097921 35.4367422,37.7180796 35.4367422,38.9758449 C35.4367422,40.5827333 35.9842128,41.3514071 37.0789803,41.3514071 C39.7477043,41.3514071 38.5160256,34.8536033 42.8954433,34.8536033 C44.5376815,34.8536033 45.9062713,35.8317864 46.1800935,38.137453 L47.2065792,38.137453 C47.6855943,38.137453 48.0961538,38.4867534 48.0961538,38.9758449 C48.0961538,39.4649365 47.6855943,39.8142369 47.2065792,39.8142369 L46.1800935,39.8142369 C45.9747268,41.211616 45.4274299,42.3993083 44.5378553,43.028191 C44.4009442,43.1679821 44.1957513,43.2378777 43.9219291,43.2378777 C43.3744584,43.2378777 42.9638989,42.8186817 42.9638989,42.2596946 C42.9638989,41.9802898 43.10081,41.7706031 43.3744584,41.4911982 C43.9219291,40.9322111 44.3324886,40.0239236 44.3324886,38.9760223 C44.3324886,37.5087477 43.6482806,36.9497606 42.8954433,36.9497606 C40.5003678,36.9497606 41.5953091,43.4475644 37.0789803,43.4475644 C35.0944644,43.4475644 33.7943302,42.1899765 33.5206818,39.8144143 L32.494196,39.8144143 C32.0151809,39.8144143 31.6046214,39.4651139 31.6046214,38.9760223 C31.6730769,38.4867534 32.0836365,38.137453 32.5626516,38.137453 Z M55.2810328,59.447262 C54.7335622,59.447262 54.2545471,59.9363535 54.2545471,60.4953406 L54.2545471,71.3248953 L25.5145099,71.3248953 L25.5145099,60.4953406 C25.5145099,59.9363535 25.0354949,59.447262 24.4880242,59.447262 C23.9405536,59.447262 23.4615385,59.9363535 23.4615385,60.4953406 L23.4615385,72.372974 C23.4615385,72.9319611 23.9405536,73.4210526 24.4880242,73.4210526 L55.2810328,73.4210526 C55.8285035,73.4210526 56.3075186,72.9319611 56.3075186,72.372974 L56.3075186,60.4953406 C56.3075186,59.9363535 55.8285035,59.447262 55.2810328,59.447262 Z M55.2810328,3.55263158 L24.488198,3.55263158 C23.9407273,3.55263158 23.4617122,4.04172312 23.4617122,4.60071023 L23.4617122,16.4783436 C23.4617122,17.0373307 23.9407273,17.5264222 24.488198,17.5264222 C25.0356686,17.5264222 25.5146837,17.0373307 25.5146837,16.4783436 L25.5146837,5.64878888 L54.2547208,5.64878888 L54.2547208,16.4783436 C54.2547208,17.0373307 54.7337359,17.5264222 55.2812066,17.5264222 C55.8286772,17.5264222 56.3076923,17.0373307 56.3076923,16.4783436 L56.3076923,4.60071023 C56.3075186,4.04172312 55.8285035,3.55263158 55.2810328,3.55263158 Z M37.8318176,62.2420201 C37.8318176,63.4297125 38.7213923,64.338 39.8846154,64.338 C41.0478385,64.338 41.9374131,63.4297125 41.9374131,62.2420201 C41.9374131,61.0543277 41.0478385,60.1460402 39.8846154,60.1460402 C38.7213923,60.1460402 37.8318176,61.1242233 37.8318176,62.2420201 Z M41.9374131,14.7316641 C41.9374131,13.5439717 41.0478385,12.6356842 39.8846154,12.6356842 C38.7213923,12.6356842 37.8318176,13.5439717 37.8318176,14.7316641 C37.8318176,15.9193565 38.7213923,16.827644 39.8846154,16.827644 C41.0478385,16.827644 41.9374131,15.9193565 41.9374131,14.7316641 Z" id="Shape" fill="#81CEC0"></path>
                        </g>
                        <text id="Receita" font-family="Roboto-Light, Roboto" font-size="20" font-weight="300" fill="#000000">
                            <tspan x="34.8583984" y="123">Receita</tspan>
                        </text>
                    </g>
                    <g id="saude" transform="translate(71.000000, 110.000000)">
                        <ellipse id="Oval-3" stroke="#A9A9A9" stroke-width="2" fill="#D3D3D3" cx="57" cy="60.5" rx="47" ry="48.5"></ellipse>
                        <path d="M4.75407027,23.7718506 L23.821908,23.7718506 L23.821908,4.75067859 C23.821908,2.12860367 25.9449586,0 28.5662097,0 L47.5434162,0 C50.1603256,0 52.2828335,2.1280608 52.2828335,4.75067859 L52.2828335,23.7675076 L71.2508141,23.7675076 C73.8769494,23.7675076 76,25.8912255 76,28.5181862 L76,47.5252436 C76,50.1570902 73.8769494,52.285151 71.2508141,52.285151 L52.2828335,52.285151 L52.2828335,71.2493214 C52.2828335,73.8762822 50.1597829,76 47.5434162,76 L28.5662097,76 C25.9449586,76 23.821908,73.8762822 23.821908,71.2493214 L23.821908,52.285151 L4.75407027,52.285151 C2.12793488,52.285151 0,50.1570902 0,47.5252436 L0,28.5181862 C7.71226049e-15,25.8955684 2.12793488,23.7718506 4.75407027,23.7718506 Z" id="Shape" fill="#E2574C" fill-rule="nonzero"></path>
                        <text id="Saúde" font-family="Roboto-Light, Roboto" font-size="20" font-weight="300" fill="#000000">
                            <tspan x="33.0048828" y="134">Saúde</tspan>
                        </text>
                    </g>
                    <g id="programas_sociais" transform="translate(236.000000, 542.000000)">
                        <ellipse id="Oval-3" stroke="#DB7093" stroke-width="2" fill="#FFC0CB" cx="84" cy="48.5" rx="47" ry="48.5"></ellipse>
                        <g id="009-heart" transform="translate(61.000000, 13.000000)" fill-rule="nonzero">
                            <path d="M73.9117806,7.17383149 C61.9162217,-5.00866294 50.0219669,0.314804701 40.5008321,9.00474699 C30.9747769,0.314804701 19.1795106,-5.1038823 7.08756815,7.17383149 C-2.339788,16.7407323 -2.38523011,32.1148387 7.08756815,41.6303093 C40.3972126,72.0540709 40.3893977,71.9999957 40.3893977,71.9999957 C40.3893977,71.9999957 40.4374447,72.1002112 73.9091757,41.6300155 C83.3871838,32.1145448 83.3391368,16.7407323 73.9117806,7.17383149 Z" id="Shape" fill="#E2574C"></path>
                            <path d="M39.9362275,8.97624385 L39.9130435,8.95828811 L39.9130435,72 C40.4547868,71.5413928 44.4380382,68.0718144 73.8119126,41.6536259 C83.4191991,32.125605 83.3728311,16.726941 73.8119126,7.14475861 C61.6493936,-5.05690103 49.5922299,0.275069987 39.9362275,8.97624385 Z" id="Shape" fill="#CB4E44"></path>
                        </g>
                        <text id="Programas-Sociais" font-family="Roboto-Light, Roboto" font-size="20" font-weight="300" fill="#000000">
                            <tspan x="8.61230469" y="122">Programas Sociais</tspan>
                        </text>
                    </g>
                    <g id="justica_cidadania" transform="translate(441.000000, 275.000000)">
                        <ellipse id="Oval-3" stroke="#2390D2" stroke-width="2" fill="#87CEFA" cx="130" cy="48.5" rx="47" ry="48.5"></ellipse>
                        <g id="law" transform="translate(103.000000, 26.000000)" fill-rule="nonzero">
                            <path d="M53.6249377,80 L1.3750623,80 C0.615725112,80 0,79.3807509 0,78.6170679 L0,2.55940274 C0,1.79571966 0.615725112,1.17647059 1.3750623,1.17647059 L53.6249377,1.17647059 C54.3842749,1.17647059 55,1.79571966 55,2.55940274 L55,78.6170679 C55,79.3807509 54.3842749,80 53.6249377,80 Z" id="Shape" fill="#707487"></path>
                            <path d="M7.0212766,76.4705882 L7.0212766,76.4705882 C6.37506146,76.4705882 5.85106383,75.8543043 5.85106383,75.0942778 L5.85106383,4.90572215 C5.85106383,4.14569574 6.37506146,3.52941176 7.0212766,3.52941176 L7.0212766,3.52941176 C7.66749173,3.52941176 8.19148936,4.14569574 8.19148936,4.90572215 L8.19148936,75.0942778 C8.19148936,75.8543043 7.66749173,76.4705882 7.0212766,76.4705882 Z" id="Shape" fill="#5B5D6E"></path>
                            <path d="M17.6618481,16.3498376 L14.6275049,14.2398898 L11.5931617,16.3498376 C11.1395568,16.6652007 10.5319149,16.3261249 10.5319149,15.7575037 L10.5319149,1.4240535 C10.5319149,0.63766238 11.1432685,0 11.8972147,0 L17.3581045,0 C18.1120506,0 18.7234043,0.63766238 18.7234043,1.4240535 L18.7234043,15.7575037 C18.7230949,16.3261249 18.115453,16.6652007 17.6618481,16.3498376 Z" id="Shape" fill="#FFD782"></path>
                            <g id="Group" transform="translate(23.404255, 23.529412)" fill="#FFC36E">
                                <path d="M9.54040565,29.9920362 L6.83721416,29.9920362 L6.83721416,1.37350546 C6.83721416,0.620910301 7.4424657,0.0106521161 8.18888646,0.0106521161 L8.18888646,0.0106521161 C8.93530722,0.0106521161 9.54055876,0.620910301 9.54055876,1.37350546 L9.54055876,29.9920362 L9.54040565,29.9920362 Z" id="Shape"></path>
                                <path d="M14.9469417,34.0804418 L1.43083118,34.0804418 C0.68441042,34.0804418 0.0791588785,33.4701837 0.0791588785,32.7175885 L0.0791588785,32.7175885 C0.0791588785,31.9649933 0.68441042,31.3547352 1.43083118,31.3547352 L14.9469417,31.3547352 C15.6933625,31.3547352 16.298614,31.9649933 16.298614,32.7175885 L16.298614,32.7175885 C16.2984609,33.4701837 15.6933625,34.0804418 14.9469417,34.0804418 Z" id="Shape"></path>
                            </g>
                            <polygon id="Shape" fill="#FFD782" points="30.1329994 51.7647059 25.7446809 55.2941176 37.4468085 55.2941176 33.0584899 51.7647059"></polygon>
                            <path d="M44.0586808,28.7365366 C44.7926856,28.7048181 45.3789839,28.0798333 45.3789839,27.3109822 C45.3789839,26.5220642 44.7617703,25.8823529 44.0005975,25.8823529 L19.1907357,25.8823529 C18.4295629,25.8823529 17.8123494,26.5220642 17.8123494,27.3109822 C17.8123494,28.0795096 18.3984915,28.7046563 19.1326524,28.7365366 L14.0425532,45.8823529 L16.9265784,45.8823529 L20.5736501,33.597242 L24.2205657,45.8823529 L27.1045909,45.8823529 L22.0152724,28.7396114 L41.176217,28.7396114 L36.0867423,45.8821911 L38.9707676,45.8821911 L42.6178393,33.5970802 L46.2649109,45.8821911 L49.1489362,45.8821911 L44.0586808,28.7365366 Z" id="Shape" fill="#F5B464"></path>
                            <g id="Group" transform="translate(12.872340, 43.529412)" fill="#FFD782">
                                <path d="M1.00647923,0.0789215686 C0.361509625,0.0789215686 -0.0821327254,0.78627451 0.200542047,1.38937908 C1.4377153,4.02859477 4.03722391,5.84852941 7.04975177,5.84852941 C10.0622796,5.84852941 12.6616312,4.02859477 13.8988045,1.38937908 C14.1814792,0.78627451 13.7378369,0.0789215686 13.0928673,0.0789215686 L1.00647923,0.0789215686 Z" id="Shape"></path>
                                <path d="M23.1783891,0.0789215686 C22.5334195,0.0789215686 22.0897771,0.78627451 22.3724519,1.38937908 C23.6096251,4.02875817 26.2089767,5.84852941 29.2215046,5.84852941 C32.2338754,5.84852941 34.833384,4.02859477 36.0705572,1.38937908 C36.353232,0.78627451 35.9095897,0.0789215686 35.2646201,0.0789215686 L23.1783891,0.0789215686 Z" id="Shape"></path>
                            </g>
                        </g>
                        <text id="Justiça-&amp;-Cidadania" font-family="Roboto-Light, Roboto" font-size="20" font-weight="300" fill="#000000">
                            <tspan x="7.31054688" y="132">Justiça &amp; Cidadania</tspan>
                        </text>
                    </g>
                    <g id="logo_centro" transform="translate(215.000000, 231.000000)">
                        <circle id="Oval" fill="#3CB371" cx="101.5" cy="101.5" r="101.5"></circle>
                        <g id="multiple-users-silhouette" transform="translate(30.000000, 42.000000)" stroke="#3CB371" fill-rule="nonzero" fill="#FFFFFF">
                            <path d="M86.8977911,20.5964439 C93.5559715,24.7303249 98.2247847,31.7257129 99.0748034,39.8457728 C101.790191,41.102131 104.803894,41.8246259 107.999101,41.8246259 C119.663946,41.8246259 129.118383,32.4624442 129.118383,20.9132027 C129.118383,9.36218172 119.663946,0 107.999101,0 C96.4456758,0.00355908828 87.0739049,9.19846366 86.8977911,20.5964439 Z M73.0620741,63.415835 C84.7269188,63.415835 94.1813553,54.0518737 94.1813553,42.5026322 C94.1813553,30.9533908 84.7251217,21.5912091 73.0620741,21.5912091 C61.3990266,21.5912091 51.9391988,30.9551703 51.9391988,42.5044118 C51.9391988,54.0536533 61.3990266,63.415835 73.0620741,63.415835 Z M82.0205167,64.8412498 L64.1000374,64.8412498 C49.1896668,64.8412498 37.0593785,76.8549523 37.0593785,91.6198301 L37.0593785,113.321371 L37.115088,113.661264 L38.624635,114.129284 C52.8539124,118.531876 65.216024,120 75.3910895,120 C95.2649944,120 106.784276,114.389097 107.494122,114.031409 L108.90483,113.32493 L109.055784,113.32493 L109.055784,91.6198301 C109.061176,76.8549523 96.9308873,64.8412498 82.0205167,64.8412498 Z M116.961138,43.2518203 L99.1790341,43.2518203 C98.9867465,50.2970356 95.9496818,56.6411104 91.1460876,61.2038616 C104.399551,65.1064019 114.096593,77.2767043 114.096593,91.6518618 L114.096593,98.3393887 C131.654062,97.7023119 141.771621,92.7747542 142.438338,92.443759 L143.849045,91.7355004 L144,91.7355004 L144,70.0268415 C144,55.2637433 131.869712,43.2518203 116.961138,43.2518203 Z M36.0044927,41.828185 C40.135979,41.828185 43.9799326,40.6341109 47.2362411,38.6000919 C48.271359,31.9143446 51.8906776,26.0721012 57.0608761,22.0930405 C57.082441,21.7015408 57.1201797,21.3136002 57.1201797,20.9185414 C57.1201797,9.36752035 47.6639461,0.00533863242 36.0044927,0.00533863242 C24.337851,0.00533863242 14.8852115,9.36752035 14.8852115,20.9185414 C14.8852115,32.4642237 24.337851,41.828185 36.0044927,41.828185 Z M54.9708723,61.2038616 C50.1906402,56.6642445 47.1643579,50.353981 46.9433171,43.3514748 C46.2837888,43.3034271 45.6314489,43.2518203 44.9593411,43.2518203 L27.0406589,43.2518203 C12.1302883,43.2518203 0,55.2637433 0,70.0268415 L0,91.7319413 L0.0557094721,92.0664956 L1.56525646,92.5380748 C12.980307,96.0669109 23.1679521,97.6934142 32.0167727,98.2059229 L32.0167727,91.6518618 C32.0203669,77.2767043 41.7138151,65.109961 54.9708723,61.2038616 Z" id="Shape"></path>
                        </g>
                    </g>
                </g>
            </g>
        </g>
    </g>
</svg>