<?xml version="1.0" encoding="UTF-8"?>
<svg width="247px" height="165px" viewBox="0 0 247 165" version="1.1" xmlns="http://www.w3.org/2000/svg" xmlns:xlink="http://www.w3.org/1999/xlink">
    <!-- Generator: Sketch 47.1 (45422) - http://www.bohemiancoding.com/sketch -->
    <title>cidadao_360</title>
    <desc>Created with Sketch.</desc>
    <defs>
        <linearGradient x1="50%" y1="100%" x2="50%" y2="0%" id="linearGradient-1">
            <stop stop-color="#3CB371" offset="0%"></stop>
            <stop stop-color="#6FDAAA" offset="100%"></stop>
        </linearGradient>
        <rect id="path-2" x="0" y="0" width="247" height="165"></rect>
    </defs>
    <g id="Icons" stroke="none" stroke-width="1" fill="none" fill-rule="evenodd">
        <g id="cidadao_360">
            <mask id="mask-3" fill="white">
                <use xlink:href="#path-2"></use>
            </mask>
            <use id="Mask" fill="url(#linearGradient-1)" xlink:href="#path-2"></use>
            <rect id="Rectangle" fill-opacity="0.1" fill="#000000" mask="url(#mask-3)" x="0" y="14" width="220" height="38"></rect>
            <text id="Cidadão-360" mask="url(#mask-3)" font-family="Roboto-Light, Roboto" font-size="25" font-weight="300" fill="#FFFFFF">
                <tspan x="13.4753418" y="40">Cidadão 360</tspan>
            </text>
            <g id="multiple-users-silhouette" mask="url(#mask-3)" stroke="#3CB371" fill="#FFFFFF" fill-rule="nonzero">
                <g transform="translate(137.000000, 60.000000)" id="Shape">
                    <path d="M72.4148259,17.1637032 C77.9633096,20.6086041 81.8539873,26.4380941 82.5623362,33.2048107 C84.8251591,34.2517758 87.3365781,34.8538549 89.9992512,34.8538549 C99.7199551,34.8538549 107.598652,27.0520368 107.598652,17.4276689 C107.598652,7.8018181 99.7199551,0 89.9992512,0 C80.3713965,0.0029659069 72.5615874,7.66538638 72.4148259,17.1637032 Z M60.8850618,52.8465291 C70.6057656,52.8465291 78.4844627,45.0432281 78.4844627,35.4188602 C78.4844627,25.7944923 70.6042681,17.9926742 60.8850618,17.9926742 C51.1658555,17.9926742 43.2826657,25.7959753 43.2826657,35.4203432 C43.2826657,45.044711 51.1658555,52.8465291 60.8850618,52.8465291 Z M68.3504306,54.0343749 L53.4166979,54.0343749 C40.991389,54.0343749 30.8828154,64.0457936 30.8828154,76.3498584 L30.8828154,94.4344757 L30.92924,94.7177198 L32.1871958,95.1077366 C44.044927,98.7765634 54.3466866,100 62.8259079,100 C79.3874953,100 88.9868963,95.3242478 89.578435,95.0261741 L90.7540247,94.4374416 L90.8798203,94.4374416 L90.8798203,76.3498584 C90.884313,64.0457936 80.7757394,54.0343749 68.3504306,54.0343749 Z M97.4676151,36.0431836 L82.6491951,36.0431836 C82.4889554,41.9141963 79.9580681,47.2009254 75.955073,51.003218 C86.9996256,54.2553349 95.0804942,64.3972536 95.0804942,76.3765515 L95.0804942,81.9494906 C109.711718,81.4185933 118.143018,77.3122952 118.698615,77.0364658 L119.874204,76.4462504 L120,76.4462504 L120,58.3557012 C120,46.0531194 109.891426,36.0431836 97.4676151,36.0431836 Z M30.0037439,34.8568208 C33.4466492,34.8568208 36.6499438,33.8617591 39.3635343,32.1667433 C40.2261325,26.5952872 43.2422314,21.726751 47.5507301,18.4108671 C47.5687009,18.0846173 47.6001498,17.7613335 47.6001498,17.4321178 C47.6001498,7.80626696 39.7199551,0.00444886035 30.0037439,0.00444886035 C20.2815425,0.00444886035 12.4043429,7.80626696 12.4043429,17.4321178 C12.4043429,27.0535198 20.2815425,34.8568208 30.0037439,34.8568208 Z M45.8090603,51.003218 C41.8255335,47.2202038 39.3036316,41.9616508 39.1194309,36.126229 C38.569824,36.0861893 38.0262074,36.0431836 37.4661176,36.0431836 L22.5338824,36.0431836 C10.1085736,36.0431836 0,46.0531194 0,58.3557012 L0,76.4432844 L0.0464245601,76.7220797 L1.30438038,77.1150624 C10.8169225,80.055759 19.3066267,81.4111785 26.680644,81.8382691 L26.680644,76.3765515 C26.6836391,64.3972536 34.7615125,54.2583008 45.8090603,51.003218 Z"></path>
                </g>
            </g>
        </g>
    </g>
</svg>