<?xml version="1.0" encoding="UTF-8"?>
<svg width="107px" height="105px" viewBox="0 0 107 105" version="1.1" xmlns="http://www.w3.org/2000/svg" xmlns:xlink="http://www.w3.org/1999/xlink">
    <!-- Generator: Sketch 47.1 (45422) - http://www.bohemiancoding.com/sketch -->
    <title>imagem_previdencia</title>
    <desc>Created with Sketch.</desc>
    <defs></defs>
    <g id="Website" stroke="none" stroke-width="1" fill="none" fill-rule="evenodd">
        <g id="Desktop" transform="translate(-260.000000, -703.000000)">
            <g id="Pagina">
                <g id="Branding" transform="translate(199.000000, 269.000000)">
                    <g id="previdencia" transform="translate(61.000000, 435.000000)">
                        <g id="imagem_previdencia">
                            <ellipse id="Oval-3" stroke="#DEB887" stroke-width="2" fill="#FFDEAD" cx="59" cy="48.5" rx="47" ry="48.5"></ellipse>
                            <g id="001-couple" transform="translate(0.000000, 31.000000)" fill-rule="nonzero">
                                <path d="M38.3513223,37.4626222 L31.2838341,35.6888889 L11.3758548,35.6888889 L4.30836667,37.4626222 C1.77632056,38.0981059 0,40.3820999 0,43.00226 L0,69.9502035 C0,70.7385468 0.636588743,71.3777778 1.42202074,71.3777778 L41.2379793,71.3777778 C42.0232557,71.3777778 42.66,70.7387029 42.66,69.9502035 L42.66,43.0024162 C42.66,40.3820999 40.8835239,38.0981059 38.3513223,37.4626222 Z" id="Shape" fill="#0096DC"></path>
                                <path d="M38.3513223,38.4550704 L33.8760707,37.3111111 C33.0061854,39.4837272 29.6832637,46.7158144 22.1460716,52.0809563 C21.6567708,52.4292492 21.0030737,52.4292492 20.5137729,52.0809563 C12.9765808,46.7158144 9.65381463,39.4838862 8.78377373,37.3111111 L4.30836667,38.4552294 C1.77632056,39.1025135 0,41.4289191 0,44.0977333 L0,71.5459169 C0,72.348899 0.636588743,73 1.42202074,73 L42.66,73 L42.66,44.0978924 C42.66,41.4289191 40.8835239,39.1023544 38.3513223,38.4550704 Z" id="Shape" fill="#B48764"></path>
                                <rect id="Rectangle-path" fill="#D29B6E" x="14.22" y="29.2" width="14.22" height="8.11111111"></rect>
                                <path d="M35.0470871,14.8114111 L35.0470871,10.3680526 C35.0470871,4.64180953 30.5455041,0 24.9925987,0 L19.2472442,0 C13.6943388,0 9.19275584,4.64180953 9.19275584,10.3680526 L9.19275584,14.8115731 C7.606189,14.8115731 6.32,16.1377118 6.32,17.7739201 C6.32,19.4099664 7.606189,20.7362671 9.19275584,20.7362671 C9.19275584,28.0983944 14.9803707,34.0666667 22.12,34.0666667 C29.2596293,34.0666667 35.0472442,28.0985564 35.0472442,20.7362671 C36.633811,20.7362671 37.92,19.4099664 37.92,17.7739201 C37.9196858,16.1377118 36.6334968,14.8114111 35.0470871,14.8114111 Z" id="Shape" fill="#F0C087"></path>
                                <path d="M16.1509234,20.7361051 L16.1509234,10.3680526 C16.1509234,4.89193879 20.1793608,0.418610122 25.2798464,0.0374221897 C25.0469728,0.019926101 24.8147136,0 24.5776924,0 L18.96,0 C13.5304805,0 9.12892302,4.64180953 9.12892302,10.3680526 L9.12892302,14.8115731 C7.5776098,14.8115731 6.32,16.1377118 6.32,17.7739201 C6.32,19.4099664 7.5776098,20.7362671 9.12892302,20.7362671 C9.12892302,28.0983944 14.7879367,34.0666667 21.768923,34.0666667 C22.988591,34.0666667 24.1641728,33.8745337 25.28,33.534494 C20.0091602,31.9282558 16.1509234,26.8119459 16.1509234,20.7361051 Z" id="Shape" fill="#E6AF78"></path>
                                <path d="M21.3300491,27.5777778 C19.9362009,27.5777778 18.6041319,26.7682827 17.6745638,25.3554362 C17.215468,24.6600119 17.3030245,23.6383415 17.8673897,23.0745512 C18.4331951,22.5089868 19.262534,22.6152519 19.7188937,23.3120953 C20.5881227,24.6300306 22.0718315,24.6300306 22.9410606,23.3120953 C23.3975642,22.6150745 24.2256071,22.5089868 24.7925645,23.0745512 C25.3570737,23.6385189 25.4444863,24.6601893 24.9853905,25.3554362 C24.0558223,26.7682827 22.7237533,27.5777778 21.3300491,27.5777778 Z" id="Shape" fill="#D29B6E"></path>
                                <g id="Group" transform="translate(14.220000, 16.222222)" fill="#64463C">
                                    <path d="M1.4793437,4.77050805 C0.698171087,4.77050805 0.066153913,4.08430805 0.066153913,3.23616552 L0.066153913,1.70182299 C0.066153913,0.85368046 0.698171087,0.16748046 1.4793437,0.16748046 C2.2605163,0.16748046 2.89253348,0.85368046 2.89253348,1.70182299 L2.89253348,3.23616552 C2.89253348,4.08414023 2.2605163,4.77050805 1.4793437,4.77050805 Z" id="Shape"></path>
                                    <path d="M12.7847074,4.77050805 C12.0035348,4.77050805 11.3715176,4.08430805 11.3715176,3.23616552 L11.3715176,1.70182299 C11.3715176,0.85368046 12.0035348,0.16748046 12.7847074,0.16748046 C13.56588,0.16748046 14.1978972,0.85368046 14.1978972,1.70182299 L14.1978972,3.23616552 C14.1978972,4.08414023 13.56588,4.77050805 12.7847074,4.77050805 Z" id="Shape"></path>
                                </g>
                                <g id="Group" transform="translate(3.160000, 3.244444)" fill="#D5DCED">
                                    <path d="M8.080594,3.33684622 C8.080594,1.58934519 6.787048,0.172690963 5.191406,0.172690963 C3.595764,0.172690963 2.302218,1.58917215 2.302218,3.33684622 C2.302218,3.98140919 2.480284,4.57942519 2.782538,5.07950222 C1.259418,5.54393363 0.135406,7.05783467 0.135406,8.87403141 C0.135406,11.0582779 1.75222,12.829139 3.746812,12.829139 C5.741404,12.829139 7.358218,11.0582779 7.358218,8.87403141 C7.358218,7.84117333 6.988182,6.90884978 6.396314,6.20458904 C7.388238,5.70330074 8.080594,4.61161007 8.080594,3.33684622 Z" id="Shape"></path>
                                    <path d="M28.304594,3.33684622 C28.304594,1.58934519 29.59814,0.172690963 31.193782,0.172690963 C32.789424,0.172690963 34.08297,1.58917215 34.08297,3.33684622 C34.08297,3.98140919 33.904904,4.57942519 33.60265,5.07950222 C35.12577,5.54393363 36.249782,7.05783467 36.249782,8.87403141 C36.249782,11.0582779 34.632968,12.829139 32.638376,12.829139 C30.643784,12.829139 29.02697,11.0582779 29.02697,8.87403141 C29.02697,7.84117333 29.397006,6.90884978 29.988874,6.20458904 C28.99695,5.70330074 28.304594,4.61161007 28.304594,3.33684622 Z" id="Shape"></path>
                                </g>
                                <g id="Group" transform="translate(0.000000, 40.555556)" fill="#0096DC">
                                    <path d="M6.43281775,5.52700654 L1.09706007,0.0566187364 C0.408605236,1.02581699 0,2.20717647 0,3.47298693 L0,30.9219412 C0,31.7249412 0.634935927,32.3760566 1.41832865,32.3760566 L8.5098168,32.3760566 L8.5098168,10.6678606 C8.5098168,8.7396427 7.76272385,6.89046841 6.43281775,5.52700654 Z" id="Shape"></path>
                                    <path d="M36.1164214,5.52700654 L41.4521791,0.0566187364 C42.1406339,1.02581699 42.5492391,2.20717647 42.5492391,3.47298693 L42.5492391,32.3760566 L34.0394223,32.3760566 L34.0394223,10.6678606 C34.0394223,8.7396427 34.7865153,6.89046841 36.1164214,5.52700654 Z" id="Shape"></path>
                                </g>
                                <path d="M22.12,48.6666667 L22.12,48.6666667 C21.2474833,48.6666667 20.54,48.0441896 20.54,47.2761688 L20.54,38.9333333 L23.7,38.9333333 L23.7,47.2761688 C23.7,48.0441896 22.9925167,48.6666667 22.12,48.6666667 Z" id="Shape" fill="#007DC3"></path>
                                <g id="Group" transform="translate(11.060000, 34.066667)" fill="#00AAF0">
                                    <path d="M2.78054279,0.260859127 L10.2131567,3.64145437 L6.97340961,7.57099802 C6.40242946,8.26348413 5.26651969,8.27970635 4.67197426,7.60373214 L0.0227691473,2.31717063 L0.827491318,0.853115079 C1.18702093,0.199011905 2.06148357,-0.0661924603 2.78054279,0.260859127 Z" id="Shape"></path>
                                    <path d="M17.6456115,0.260859127 L10.2129975,3.64145437 L13.4527447,7.57099802 C14.0237248,8.26348413 15.1596346,8.27970635 15.75418,7.60373214 L20.4033851,2.31717063 L19.5986629,0.853115079 C19.2392926,0.199011905 18.3648299,-0.0661924603 17.6456115,0.260859127 Z" id="Shape"></path>
                                </g>
                                <g id="Group" transform="translate(42.660000, 34.066667)" fill="#C7CFE2">
                                    <path d="M26.2423636,0.132095238 C28.5269575,0.132095238 30.3791555,2.02932275 30.3791555,4.36980317 C30.3791555,4.4560127 30.3593984,4.53650582 30.3544214,4.62147937 C31.9701365,5.19821799 33.1370168,6.75570582 33.1370168,8.60751111 C33.1370168,10.947837 31.2849695,12.845219 29.0002249,12.845219 L22.1057225,12.845219 L22.1057225,4.36995767 C22.1055717,2.02932275 23.9577698,0.132095238 26.2423636,0.132095238 Z" id="Shape"></path>
                                    <path d="M6.93763636,0.132095238 C4.65304255,0.132095238 2.80084445,2.02932275 2.80084445,4.36980317 C2.80084445,4.4560127 2.82060164,4.53650582 2.82557864,4.62147937 C1.20986345,5.19821799 0.0429831818,6.75570582 0.0429831818,8.60751111 C0.0429831818,10.947837 1.89503045,12.845219 4.17977509,12.845219 L11.0742775,12.845219 L11.0742775,4.36995767 C11.0744283,2.02932275 9.22223018,0.132095238 6.93763636,0.132095238 Z" id="Shape"></path>
                                </g>
                                <path d="M74.5659707,47.4391055 L66.6662793,44.1215223 C65.8630098,43.7840778 65.2671152,43.0869949 65.0191602,42.2486486 L64.892791,38.9333333 L53.6070547,38.9333333 L53.4805313,42.2486486 C53.2328848,43.0871569 52.6368359,43.7842398 51.8334121,44.1215223 L43.9337207,47.4391055 C41.2560527,48.5637046 39.5,51.2869125 39.5,54.315165 L39.5,71.5188406 C39.5,72.3369369 40.1315371,73 40.9107363,73 L77.5892637,72.999352 C78.3683086,72.999352 79,72.3362889 79,71.5181926 L79,54.315165 C79,51.2869125 77.2439473,48.5637046 74.5659707,47.4391055 Z" id="Shape" fill="#966D50"></path>
                                <path d="M74.5659707,46.3394718 L68.3930156,43.8 C66.1933594,46.4667389 62.916248,48.1635815 59.25,48.1635815 C55.5835977,48.1635815 52.3064863,46.4665802 50.1069844,43.8 L43.9340293,46.3394718 C41.2560527,47.4410785 39.5,50.1086109 39.5,53.0749513 L39.5,69.9269004 C39.5,70.7282709 40.1316914,71.3777778 40.9107363,71.3777778 L77.5892637,71.3773017 C78.3683086,71.3773017 79,70.7277949 79,69.9264244 L79,53.0749513 C79,50.1086109 77.2439473,47.4410785 74.5659707,46.3394718 Z" id="Shape" fill="#FFDC64"></path>
                                <ellipse id="Oval" fill="#D5DCED" cx="60.04" cy="22.7111111" rx="15.8" ry="16.2222222"></ellipse>
                                <path d="M54.1558941,22.7111111 C54.1558941,15.5585323 58.6078207,9.49957565 64.78,7.34184959 C63.2208806,6.79681287 61.5574893,6.48888889 59.8220529,6.48888889 C51.2162963,6.48888889 44.24,13.7517977 44.24,22.7111111 C44.24,31.6704245 51.2162963,38.9333333 59.8220529,38.9333333 C61.5574893,38.9333333 63.2210355,38.6255707 64.78,38.0803726 C58.6078207,35.9224853 54.1558941,29.8636899 54.1558941,22.7111111 Z" id="Shape" fill="#C7CFE2"></path>
                                <path d="M60.0400768,43.8 L60.0400768,43.8 C53.0592017,43.8 47.4,37.9037701 47.4,30.6305102 L47.4,25.7595307 C47.4,25.167523 47.7592973,24.6616197 48.2789651,24.422512 C50.7471948,23.2868304 52.644297,21.2380901 53.6415429,19.987656 C54.0862482,19.4300581 54.8612183,19.2962602 55.4378759,19.7022952 C62.4752801,24.6560181 72.68,23.589156 72.68,29.1672158 L72.68,30.6305102 C72.6801536,37.9039301 67.0209519,43.8 60.0400768,43.8 Z" id="Shape" fill="#C39772"></path>
                                <path d="M54.9564642,30.6078547 L54.9564642,19.4666667 C54.6389255,19.5317561 54.3380819,19.6882271 54.1165816,19.9469815 C53.0432972,21.1995515 51.0018584,23.2517913 48.3460044,24.3894128 C47.7866336,24.628929 47.4,25.1356964 47.4,25.7287153 L47.4,30.6080151 C47.4,37.8936986 53.4896037,43.8 61.0017679,43.8 C62.3142395,43.8 63.5792703,43.609862 64.78,43.2733531 C59.1081061,41.6837931 54.9564642,36.6206078 54.9564642,30.6078547 Z" id="Shape" fill="#B48764"></path>
                                <path d="M59.2500491,38.9333333 C57.8562009,38.9333333 56.5241319,38.1239493 55.5945638,36.7112965 C55.135468,36.0159676 55.2230245,34.9944373 55.7873897,34.4307243 C56.3531951,33.8638184 57.1812379,33.9714879 57.6388937,34.6682358 C58.5081227,35.9859904 59.9918315,35.9859904 60.8610606,34.6682358 C61.3175642,33.9713106 62.1456071,33.863641 62.7125645,34.4307243 C63.2770737,34.9946147 63.3644863,36.016145 62.9053905,36.7112965 C61.9759663,38.1239493 60.6438973,38.9333333 59.2500491,38.9333333 Z" id="Shape" fill="#966D50"></path>
                                <path d="M56.6153354,30.8222222 C56.3633419,30.8222222 56.1100525,30.7335083 55.8851303,30.5480963 C55.2809219,30.0505888 55.1176302,29.0431538 55.5225477,28.2984894 C56.3184151,26.8315165 57.710715,25.9555556 59.2497471,25.9555556 C60.7874833,25.9555556 62.1810792,26.8300971 62.9769466,28.2954732 C63.3820081,29.0399601 63.2200123,30.0475725 62.61566,30.5466769 C62.0114516,31.0441844 61.1936968,30.846175 60.7886353,30.1015106 C60.1844269,28.9893932 58.3149234,28.9893932 57.710715,30.1015106 C57.4575696,30.5686779 57.0409883,30.8222222 56.6153354,30.8222222 Z" id="Shape" fill="#707487"></path>
                                <g id="Group" transform="translate(48.980000, 24.333333)" fill="#7F8499">
                                    <path d="M4.06292063,8.06939683 C1.82253,8.06939683 0,6.28726984 0,4.09654563 C0,1.90582143 1.82253,0.123694444 4.06292063,0.123694444 C6.30331125,0.123694444 8.12584125,1.90582143 8.12584125,4.09654563 C8.12584125,6.28726984 6.30331125,8.06939683 4.06292063,8.06939683 Z" id="Shape"></path>
                                    <path d="M14.8970794,8.06939683 C12.6566887,8.06939683 10.8341587,6.28726984 10.8341587,4.09654563 C10.8341587,1.90582143 12.6566887,0.123694444 14.8970794,0.123694444 C17.13747,0.123694444 18.96,1.90596627 18.96,4.09669048 C18.96,6.28741468 17.13747,8.06939683 14.8970794,8.06939683 Z" id="Shape"></path>
                                </g>
                                <g id="Group" transform="translate(52.140000, 27.577778)" fill="#FFFFFF">
                                    <path d="M12.7626046,0.024077193 C11.982823,0.024077193 11.3494148,0.723852632 11.3494148,1.58533801 C11.3494148,2.44682339 11.982823,3.14659883 12.7626046,3.14659883 C13.5423861,3.14659883 14.1757943,2.44682339 14.1757943,1.58533801 C14.1757943,0.723852632 13.5423861,0.024077193 12.7626046,0.024077193 Z" id="Shape"></path>
                                    <path d="M1.45739543,0.024077193 C0.677613913,0.024077193 0.0442056522,0.723852632 0.0442056522,1.58533801 C0.0442056522,2.44682339 0.677613913,3.14659883 1.45739543,3.14659883 C2.23717696,3.14659883 2.87058522,2.44682339 2.87058522,1.58533801 C2.87058522,0.723852632 2.23702239,0.024077193 1.45739543,0.024077193 Z" id="Shape"></path>
                                </g>
                                <g id="Group" transform="translate(39.500000, 43.800000)" fill="#FFC850">
                                    <path d="M5.81406055,10.3950888 L1.06958594,5.54943683 C0.393302734,6.66483975 -2.84217094e-14,7.96304394 -2.84217094e-14,9.33373829 L-2.84217094e-14,26.069037 C-2.84217094e-14,26.8646952 0.631537109,27.5098577 1.41073633,27.5098577 L7.05352734,27.5097001 L7.05352734,13.4513369 C7.05352734,12.3052044 6.60760938,11.2057178 5.81406055,10.3950888 Z" id="Shape"></path>
                                    <path d="M33.6859395,10.3950888 L38.4304141,5.54943683 C39.1066973,6.66483975 39.5,7.96304394 39.5,9.33373829 L39.5,26.069037 C39.5,26.8646952 38.8684629,27.5098577 38.0892637,27.5098577 L32.4464727,27.5097001 L32.4464727,13.4513369 C32.4464727,12.3052044 32.8923906,11.2057178 33.6859395,10.3950888 Z" id="Shape"></path>
                                    <path d="M19.75,8.77950375 C25.1548652,8.77950375 29.9095234,5.95396343 32.6881016,1.67357714 L28.8931699,0.12323327 C26.6933594,2.77148787 23.416248,4.45656889 19.75,4.45656889 C16.0835977,4.45656889 12.8064863,2.77133029 10.6069844,0.12323327 L6.81205273,1.67357714 C9.59047656,5.95396343 14.3451348,8.77950375 19.75,8.77950375 Z" id="Shape"></path>
                                </g>
                            </g>
                        </g>
                    </g>
                </g>
            </g>
        </g>
    </g>
</svg>