<?xml version="1.0" encoding="UTF-8"?>
<svg width="247px" height="165px" viewBox="0 0 247 165" version="1.1" xmlns="http://www.w3.org/2000/svg" xmlns:xlink="http://www.w3.org/1999/xlink">
    <!-- Generator: Sketch 47.1 (45422) - http://www.bohemiancoding.com/sketch -->
    <title>justica</title>
    <desc>Created with Sketch.</desc>
    <defs>
        <linearGradient x1="50%" y1="0%" x2="50%" y2="100%" id="linearGradient-1">
            <stop stop-color="#87CEFA" offset="0%"></stop>
            <stop stop-color="#1E90FF" offset="100%"></stop>
        </linearGradient>
        <rect id="path-2" x="0" y="0" width="247" height="165"></rect>
    </defs>
    <g id="Icons" stroke="none" stroke-width="1" fill="none" fill-rule="evenodd">
        <g id="justica">
            <mask id="mask-3" fill="white">
                <use xlink:href="#path-2"></use>
            </mask>
            <use id="Mask" fill="url(#linearGradient-1)" xlink:href="#path-2"></use>
            <rect id="Rectangle" fill-opacity="0.1" fill="#000000" mask="url(#mask-3)" x="0" y="14" width="138" height="38"></rect>
            <text id="Justiça" mask="url(#mask-3)" font-family="Roboto-Light, Roboto" font-size="30" font-weight="300" fill="#FFFFFF">
                <tspan x="15.9677734" y="43">Justiça</tspan>
            </text>
            <g id="002-justice" mask="url(#mask-3)">
                <g transform="translate(138.000000, 52.000000)">
                    <rect id="Rectangle-path" fill="#FFD782" fill-rule="nonzero" x="55" y="23" width="7" height="51"></rect>
                    <path d="M62.1667705,72 L54.8334372,72 C53.8209761,72 53,72.9254535 53,74.0667603 L53,103 L64,103 L64,74.0667603 C64,72.9254535 63.1794393,72 62.1667705,72 Z" id="Shape" fill="#FFC36E" fill-rule="nonzero"></path>
                    <g id="Group" stroke-width="1" fill="none" fill-rule="evenodd" transform="translate(36.000000, 0.000000)">
                        <path d="M41.9496429,103.987881 L28.580051,99.7972964 L16.4197194,99.7972964 L3.05035714,103.98765 C1.35803571,104.517979 0.205943878,106.089851 0.205943878,107.868281 L44.7940561,107.868281 C44.7940561,106.090081 43.6417347,104.518209 41.9496429,103.987881 Z" id="Shape" fill="#FFD782" fill-rule="nonzero"></path>
                        <ellipse id="Oval" fill="#FFD782" fill-rule="nonzero" cx="22.5" cy="6.28910021" rx="6.08028061" ry="6.0984307"></ellipse>
                    </g>
                    <g id="Group" stroke-width="1" fill="none" fill-rule="evenodd" transform="translate(0.000000, 20.000000)">
                        <path d="M44.4889903,54.9526613 L24.3661949,9.9413871 L24.3661949,2.12916129 C24.3661949,0.989040323 23.4569279,0.0645483871 22.3355828,0.0645483871 C21.2142378,0.0645483871 20.3049708,0.989040323 20.3049708,2.12916129 L20.3049708,9.9413871 L0.182405458,54.9526613 C-0.28154386,55.9901129 0.169524366,57.2137258 1.19081092,57.6854435 C2.20611696,58.1562258 3.41463938,57.6997097 3.87858869,56.6601532 L22.3353528,15.3758468 L40.792347,56.6601532 C41.1325458,57.4211694 41.8699883,57.8718387 42.6414737,57.8706694 C42.9230175,57.8706694 43.2084717,57.8112661 43.4803548,57.6852097 C44.5016413,57.2137258 44.9529396,55.989879 44.4889903,54.9526613 Z" id="Shape" fill="#F5B464" fill-rule="nonzero"></path>
                        <path d="M117.587575,54.9526613 L97.4647797,9.9413871 L97.4647797,2.12916129 C97.4647797,0.989040323 96.5555127,0.0645483871 95.4341676,0.0645483871 C94.3128226,0.0645483871 93.4035556,0.989040323 93.4035556,2.12916129 L93.4035556,9.9413871 L73.2809903,54.9526613 C72.8170409,55.9901129 73.2681092,57.2137258 74.2893957,57.6854435 C75.3067719,58.1562258 76.5132242,57.6997097 76.9774035,56.6601532 L95.4341676,15.3760806 L113.891162,56.6603871 C114.231361,57.4214032 114.968803,57.8720726 115.740288,57.8709032 C116.021832,57.8709032 116.307287,57.8115 116.57917,57.6854435 C117.600226,57.2137258 118.051524,55.989879 117.587575,54.9526613 Z" id="Shape" fill="#F5B464" fill-rule="nonzero"></path>
                    </g>
                    <path d="M80.9584682,114 L36.041763,114 C34.9142602,114 34,113.104407 34,111.999924 L34,108 L83,108 L83,111.999924 C83,113.104633 82.0862023,114 80.9584682,114 Z" id="Shape" fill="#FFC36E" fill-rule="nonzero"></path>
                    <g id="Group" stroke-width="1" fill="none" fill-rule="evenodd" transform="translate(32.000000, 21.000000)">
                        <path d="M50.9099565,88.8894936 L2.08981304,88.8894936 C0.966443478,88.8894936 0.0555347826,87.9850797 0.0555347826,86.8697198 L0.0555347826,86.8697198 C0.0555347826,85.7543599 0.966443478,84.849946 2.08981304,84.849946 L50.9099565,84.849946 C52.0333261,84.849946 52.9442348,85.7543599 52.9442348,86.8697198 L52.9442348,86.8697198 C52.9442348,87.9853085 52.0335565,88.8894936 50.9099565,88.8894936 Z" id="Shape" fill="#F5B464" fill-rule="nonzero"></path>
                        <path d="M30.5683261,4.06311311 L22.4316739,4.06311311 C21.3083043,4.06311311 20.3973957,3.15869923 20.3973957,2.04333933 L20.3973957,2.04333933 C20.3973957,0.927979434 21.3083043,0.0235655527 22.4316739,0.0235655527 L30.5683261,0.0235655527 C31.6916957,0.0235655527 32.6026043,0.927979434 32.6026043,2.04333933 L32.6026043,2.04333933 C32.6023739,3.15892802 31.6919261,4.06311311 30.5683261,4.06311311 Z" id="Shape" fill="#F5B464" fill-rule="nonzero"></path>
                    </g>
                    <g id="Group" stroke-width="1" fill="none" fill-rule="evenodd" transform="translate(0.000000, 25.000000)">
                        <ellipse id="Oval" fill="#FFD782" fill-rule="nonzero" cx="22.379207" cy="4.21848" rx="4.06892578" ry="4.0446"></ellipse>
                        <ellipse id="Oval" fill="#FFD782" fill-rule="nonzero" cx="95.6205625" cy="4.21848" rx="4.06892578" ry="4.0446"></ellipse>
                        <path d="M42.7240664,46.6871236 L2.03457812,46.6871236 C0.911042969,46.6871236 0,47.59272 0,48.7095382 C0,56.6475382 9.82949219,62.8657527 22.379207,62.8657527 C34.9289219,62.8657527 44.7584141,56.6475382 44.7584141,48.7095382 C44.7586445,47.59272 43.8476016,46.6871236 42.7240664,46.6871236 Z" id="Shape" fill="#FFD782" fill-rule="nonzero"></path>
                        <path d="M115.965191,46.6871236 L75.2757031,46.6871236 C74.152168,46.6871236 73.241125,47.59272 73.241125,48.7095382 C73.241125,56.6475382 83.0706172,62.8657527 95.620332,62.8657527 C108.170047,62.8657527 117.999539,56.6475382 117.999539,48.7095382 C117.99977,47.59272 117.088727,46.6871236 115.965191,46.6871236 Z" id="Shape" fill="#FFD782" fill-rule="nonzero"></path>
                    </g>
                    <path d="M98.2868673,15.7213739 L63.0999536,10 L54.9000464,10 L19.7131327,15.7213739 C18.724778,15.882233 18,16.7166614 18,17.6940505 L18,17.9999094 C18,19.1043998 18.9179902,20 20.0500929,20 L97.9499071,20 C99.0820098,20 100,19.1043998 100,17.9999094 L100,17.6940505 C99.9997678,16.7166614 99.275222,15.882233 98.2868673,15.7213739 Z" id="Shape" fill="#FFC36E" fill-rule="nonzero"></path>
                </g>
            </g>
        </g>
    </g>
</svg>