<?xml version="1.0" encoding="utf-8"?>
<!-- Generator: Adobe Illustrator 21.1.0, SVG Export Plug-In . SVG Version: 6.00 Build 0)  -->
<svg version="1.1" id="Layer_1" xmlns="http://www.w3.org/2000/svg" xmlns:xlink="http://www.w3.org/1999/xlink" x="0px" y="0px"
	 viewBox="0 0 178.5 122.2" style="enable-background:new 0 0 178.5 122.2;" xml:space="preserve">
<style type="text/css">
	.st0{fill:url(#SVGID_1_);}
	.st1{enable-background:new    ;}
	.st2{fill:#5697B8;}
	.st3{fill:#ACBF31;}
</style>
<title>logo-cidadao-vertical</title>
<g id="Layer_2">
	<g id="guidelines">
		
			<linearGradient id="SVGID_1_" gradientUnits="userSpaceOnUse" x1="106.9529" y1="119.5727" x2="69.7148" y2="55.0787" gradientTransform="matrix(1 0 0 -1 0 124)">
			<stop  offset="0" style="stop-color:#ACBF31"/>
			<stop  offset="0.16" style="stop-color:#A3BB3F"/>
			<stop  offset="0.45" style="stop-color:#8CB064"/>
			<stop  offset="0.84" style="stop-color:#669E9F"/>
			<stop  offset="1" style="stop-color:#5697B8"/>
		</linearGradient>
		<path class="st0" d="M73.4,46.7v6.4c0,3,2.4,5.4,5.3,5.4c0,0,0,0,0,0h26.4c11.8,0,21.3-9.5,21.3-21.3C126.5,16.7,109.8,0,89.3,0
			C68.7,0,52,16.7,52,37.2s16.7,37.2,37.2,37.2c6.4,0,12.6-1.6,18.2-4.7c1.3-0.7,1.7-2.3,1-3.6c0-0.1-0.1-0.1-0.1-0.2l0,0
			c-0.8-1.1-2.3-1.5-3.5-0.8C89.5,73.7,70,68.2,61.4,52.8S58.3,18,73.7,9.4s34.8-3.1,43.4,12.3c2.7,4.8,4.1,10.1,4.1,15.6
			c0,8.8-7.2,16-16,16v-6.6c0-6-3.4-11.4-8.8-14.1c5.1-3.9,6-11.2,2.1-16.3c-3.9-5.1-11.2-6-16.3-2.1s-6,11.2-2.1,16.3
			c0.6,0.8,1.3,1.5,2.1,2.1C76.9,35.2,73.4,40.7,73.4,46.7z M89.2,17c3.5,0,6.4,2.9,6.4,6.4s-2.9,6.4-6.4,6.4s-6.4-2.9-6.4-6.4v0
			C82.9,19.9,85.7,17,89.2,17z M78.5,46.9c-0.3-5.9,4.2-11,10.1-11.4c5.9-0.3,11,4.2,11.4,10.1c0,0.4,0,0.8,0,1.1V51
			c0,1.2-1,2.2-2.2,2.2l0,0H80.6c-1.2,0-2.2-1-2.2-2.1c0,0,0,0,0,0V46.9z"/>
		<g class="st1">
			<path class="st2" d="M7.1,111.8c-1.5-0.9-2.7-2.1-3.6-3.7c-0.9-1.6-1.3-3.3-1.3-5.2c0-1.9,0.4-3.7,1.2-5.3
				c0.8-1.6,1.9-2.8,3.4-3.7c1.5-0.9,3.1-1.3,4.9-1.3c1.6,0,3,0.3,4.3,0.9c1.3,0.6,2.4,1.5,3.4,2.7c0.2,0.2,0.3,0.5,0.3,0.6
				c0,0.3-0.2,0.6-0.5,0.8c-0.2,0.1-0.4,0.2-0.6,0.2c-0.3,0-0.6-0.1-0.9-0.4c-1.6-1.9-3.6-2.8-6-2.8c-1.4,0-2.7,0.4-3.8,1.1
				s-2,1.7-2.6,2.9c-0.6,1.3-0.9,2.7-0.9,4.2c0,1.6,0.3,3,1,4.2c0.7,1.3,1.6,2.2,2.8,3c1.2,0.7,2.5,1.1,4.1,1.1
				c2.2,0,3.9-0.6,5.2-1.8c0.2-0.2,0.5-0.3,0.8-0.3c0.3,0,0.5,0.1,0.7,0.3c0.2,0.2,0.4,0.5,0.4,0.8c0,0.3-0.1,0.5-0.3,0.7
				c-0.9,0.8-1.9,1.4-3,1.8c-1.2,0.4-2.4,0.6-3.7,0.6C10.4,113.1,8.7,112.7,7.1,111.8z"/>
		</g>
		<g class="st1">
			<path class="st2" d="M22.3,87.9c-0.3-0.3-0.5-0.7-0.5-1.2c0-0.5,0.2-1,0.5-1.3c0.3-0.3,0.8-0.4,1.2-0.4c0.5,0,0.9,0.1,1.2,0.4
				c0.3,0.3,0.5,0.7,0.5,1.3c0,0.5-0.2,0.9-0.5,1.2c-0.3,0.3-0.7,0.5-1.2,0.5C23.1,88.4,22.7,88.3,22.3,87.9z M22.8,112.6
				c-0.2-0.2-0.3-0.5-0.3-0.8v-18c0-0.3,0.1-0.6,0.3-0.8c0.2-0.2,0.5-0.3,0.8-0.3c0.3,0,0.6,0.1,0.8,0.3c0.2,0.2,0.3,0.5,0.3,0.8v18
				c0,0.3-0.1,0.6-0.3,0.8c-0.2,0.2-0.5,0.3-0.8,0.3C23.3,112.9,23,112.8,22.8,112.6z"/>
		</g>
		<g class="st1">
			<path class="st2" d="M47.2,84.3c0.2,0.2,0.3,0.5,0.3,0.8v17.8v0.1c0,1.9-0.5,3.6-1.4,5.2c-0.9,1.6-2.1,2.8-3.7,3.6
				c-1.6,0.9-3.3,1.3-5.2,1.3c-1.9,0-3.7-0.4-5.3-1.3c-1.6-0.9-2.8-2.1-3.7-3.7c-0.9-1.6-1.3-3.3-1.3-5.3c0-1.9,0.4-3.7,1.3-5.2
				c0.9-1.6,2.1-2.8,3.7-3.7c1.6-0.9,3.3-1.3,5.3-1.3c1.7,0,3.3,0.4,4.7,1.1c1.4,0.8,2.5,1.8,3.3,3.1V85.1c0-0.3,0.1-0.6,0.3-0.8
				c0.2-0.2,0.5-0.3,0.8-0.3C46.8,84,47,84.1,47.2,84.3z M41.4,110c1.2-0.7,2.2-1.7,2.9-3c0.7-1.3,1.1-2.7,1.1-4.2s-0.4-3-1.1-4.2
				c-0.7-1.3-1.7-2.2-2.9-3c-1.2-0.7-2.6-1.1-4.1-1.1c-1.5,0-2.9,0.4-4.1,1.1c-1.2,0.7-2.2,1.7-2.9,3c-0.7,1.3-1.1,2.7-1.1,4.2
				s0.4,3,1.1,4.2c0.7,1.3,1.7,2.2,2.9,3c1.2,0.7,2.6,1.1,4.1,1.1C38.8,111,40.1,110.7,41.4,110z"/>
		</g>
		<g class="st1">
			<path class="st2" d="M64.7,93.8c1.6,0.9,2.8,2.1,3.7,3.7c0.9,1.6,1.3,3.3,1.3,5.3v9c0,0.3-0.1,0.6-0.3,0.8
				c-0.2,0.2-0.5,0.3-0.8,0.3c-0.3,0-0.6-0.1-0.8-0.3c-0.2-0.2-0.3-0.5-0.3-0.8v-2.9c-0.8,1.3-1.9,2.3-3.3,3.1
				c-1.4,0.8-3,1.1-4.7,1.1c-1.9,0-3.7-0.4-5.3-1.3c-1.6-0.9-2.8-2.1-3.7-3.7c-0.9-1.6-1.3-3.3-1.3-5.2c0-1.9,0.4-3.7,1.3-5.3
				c0.9-1.6,2.1-2.8,3.7-3.7c1.6-0.9,3.3-1.3,5.3-1.3C61.4,92.5,63.1,92.9,64.7,93.8z M63.6,110c1.2-0.7,2.2-1.7,2.9-3
				c0.7-1.3,1.1-2.7,1.1-4.2c0-1.6-0.4-3-1.1-4.2c-0.7-1.3-1.7-2.2-2.9-3c-1.2-0.7-2.6-1.1-4.1-1.1c-1.5,0-2.9,0.4-4.1,1.1
				c-1.2,0.7-2.2,1.7-2.9,3c-0.7,1.3-1.1,2.7-1.1,4.2c0,1.6,0.4,3,1.1,4.2c0.7,1.3,1.7,2.2,2.9,3c1.2,0.7,2.6,1.1,4.1,1.1
				C61,111,62.3,110.7,63.6,110z"/>
		</g>
		<g class="st1">
			<path class="st2" d="M91.9,84.3c0.2,0.2,0.3,0.5,0.3,0.8v17.8v0.1c0,1.9-0.5,3.6-1.4,5.2c-0.9,1.6-2.1,2.8-3.7,3.6
				c-1.6,0.9-3.3,1.3-5.2,1.3c-1.9,0-3.7-0.4-5.3-1.3c-1.6-0.9-2.8-2.1-3.7-3.7c-0.9-1.6-1.3-3.3-1.3-5.3c0-1.9,0.4-3.7,1.3-5.2
				c0.9-1.6,2.1-2.8,3.7-3.7c1.6-0.9,3.3-1.3,5.3-1.3c1.7,0,3.3,0.4,4.7,1.1c1.4,0.8,2.5,1.8,3.3,3.1V85.1c0-0.3,0.1-0.6,0.3-0.8
				c0.2-0.2,0.5-0.3,0.8-0.3C91.4,84,91.7,84.1,91.9,84.3z M86,110c1.2-0.7,2.2-1.7,2.9-3c0.7-1.3,1.1-2.7,1.1-4.2s-0.4-3-1.1-4.2
				c-0.7-1.3-1.7-2.2-2.9-3c-1.2-0.7-2.6-1.1-4.1-1.1c-1.5,0-2.9,0.4-4.1,1.1c-1.2,0.7-2.2,1.7-2.9,3c-0.7,1.3-1.1,2.7-1.1,4.2
				s0.4,3,1.1,4.2c0.7,1.3,1.7,2.2,2.9,3c1.2,0.7,2.6,1.1,4.1,1.1C83.4,111,84.8,110.7,86,110z"/>
		</g>
		<g class="st1">
			<path class="st2" d="M109.3,93.8c1.6,0.9,2.8,2.1,3.7,3.7c0.9,1.6,1.3,3.3,1.3,5.3v9c0,0.3-0.1,0.6-0.3,0.8
				c-0.2,0.2-0.5,0.3-0.8,0.3c-0.3,0-0.6-0.1-0.8-0.3c-0.2-0.2-0.3-0.5-0.3-0.8v-2.9c-0.8,1.3-1.9,2.3-3.3,3.1
				c-1.4,0.8-3,1.1-4.7,1.1c-1.9,0-3.7-0.4-5.3-1.3s-2.8-2.1-3.7-3.7c-0.9-1.6-1.3-3.3-1.3-5.2c0-1.9,0.4-3.7,1.3-5.3
				c0.9-1.6,2.1-2.8,3.7-3.7c1.6-0.9,3.3-1.3,5.3-1.3C106,92.5,107.7,92.9,109.3,93.8z M108.2,110c1.2-0.7,2.2-1.7,2.9-3
				c0.7-1.3,1.1-2.7,1.1-4.2c0-1.6-0.4-3-1.1-4.2c-0.7-1.3-1.7-2.2-2.9-3c-1.2-0.7-2.6-1.1-4.1-1.1s-2.9,0.4-4.1,1.1
				c-1.2,0.7-2.2,1.7-2.9,3c-0.7,1.3-1.1,2.7-1.1,4.2c0,1.6,0.4,3,1.1,4.2c0.7,1.3,1.7,2.2,2.9,3c1.2,0.7,2.6,1.1,4.1,1.1
				S107,110.7,108.2,110z M106.1,89.3c-0.5-0.2-1.1-0.5-1.7-0.9c-0.5-0.3-0.9-0.6-1.2-0.7c-0.3-0.1-0.6-0.2-0.9-0.2
				c-1,0-2,0.5-2.8,1.5c-0.2,0.3-0.5,0.4-0.9,0.4c-0.2,0-0.4,0-0.6-0.1c-0.4-0.2-0.6-0.5-0.6-0.8c0-0.2,0.1-0.5,0.2-0.6
				c0.7-0.8,1.4-1.4,2.2-1.8c0.8-0.4,1.6-0.6,2.5-0.6c0.6,0,1.2,0.1,1.7,0.3c0.5,0.2,1,0.5,1.6,0.9c0.5,0.3,0.9,0.6,1.2,0.7
				c0.3,0.1,0.6,0.2,1.1,0.2c0.8,0,1.5-0.3,2-0.8c0.3-0.3,0.6-0.5,1-0.5c0.2,0,0.3,0,0.4,0.1c0.4,0.2,0.7,0.5,0.7,0.9
				c0,0.2-0.1,0.4-0.2,0.6c-1,1.3-2.3,1.9-3.9,1.9C107.3,89.6,106.6,89.5,106.1,89.3z"/>
		</g>
		<g class="st1">
			<path class="st2" d="M121.2,111.8c-1.6-0.9-2.8-2.1-3.7-3.7c-0.9-1.6-1.3-3.3-1.3-5.2c0-1.9,0.4-3.7,1.3-5.3
				c0.9-1.6,2.1-2.8,3.7-3.7c1.6-0.9,3.3-1.3,5.3-1.3c1.9,0,3.7,0.5,5.2,1.3c1.6,0.9,2.8,2.1,3.7,3.7s1.3,3.3,1.3,5.3
				c0,1.9-0.4,3.7-1.3,5.2c-0.9,1.6-2.1,2.8-3.7,3.7c-1.6,0.9-3.3,1.3-5.2,1.3C124.5,113.1,122.8,112.7,121.2,111.8z M130.6,110
				c1.2-0.7,2.2-1.7,2.9-3c0.7-1.3,1.1-2.7,1.1-4.2c0-1.6-0.4-3-1.1-4.2c-0.7-1.3-1.7-2.2-2.9-3c-1.2-0.7-2.6-1.1-4.1-1.1
				c-1.5,0-2.9,0.4-4.1,1.1c-1.2,0.7-2.2,1.7-2.9,3c-0.7,1.3-1.1,2.7-1.1,4.2c0,1.6,0.4,3,1.1,4.2c0.7,1.3,1.7,2.2,2.9,3
				c1.2,0.7,2.6,1.1,4.1,1.1C128,111,129.4,110.7,130.6,110z"/>
		</g>
		<g class="st1">
			<path class="st3" d="M137.7,112.9c-0.4-0.4-0.5-0.8-0.5-1.3c0-0.5,0.2-1,0.6-1.3c0.4-0.4,0.8-0.5,1.3-0.5c0.5,0,1,0.2,1.3,0.5
				c0.4,0.4,0.5,0.8,0.5,1.3c0,0.5-0.2,1-0.5,1.3c-0.4,0.4-0.8,0.6-1.3,0.6C138.5,113.5,138.1,113.3,137.7,112.9z"/>
		</g>
		<g class="st1">
			<path class="st3" d="M158.2,93.8c1.6,0.9,2.8,2.1,3.7,3.7c0.9,1.6,1.3,3.3,1.3,5.2c0,1.9-0.5,3.7-1.3,5.3
				c-0.9,1.6-2.1,2.8-3.7,3.7s-3.3,1.3-5.3,1.3c-1.9,0-3.6-0.4-5.2-1.3s-2.8-2.1-3.7-3.6c-0.9-1.6-1.4-3.3-1.4-5.2v-0.1V85.1
				c0-0.3,0.1-0.6,0.3-0.8c0.2-0.2,0.5-0.3,0.8-0.3c0.3,0,0.6,0.1,0.8,0.3c0.2,0.2,0.3,0.5,0.3,0.8v11.5c0.8-1.3,1.9-2.3,3.3-3.1
				c1.4-0.8,3-1.1,4.7-1.1C154.9,92.5,156.6,92.9,158.2,93.8z M157.1,110c1.2-0.7,2.2-1.7,2.9-3c0.7-1.3,1.1-2.7,1.1-4.2
				s-0.4-3-1.1-4.2c-0.7-1.3-1.7-2.2-2.9-3c-1.2-0.7-2.6-1.1-4.1-1.1c-1.5,0-2.9,0.4-4.1,1.1c-1.2,0.7-2.2,1.7-2.9,3
				c-0.7,1.3-1.1,2.7-1.1,4.2s0.4,3,1.1,4.2c0.7,1.3,1.7,2.2,2.9,3c1.2,0.7,2.6,1.1,4.1,1.1C154.4,111,155.8,110.7,157.1,110z"/>
		</g>
		<g class="st1">
			<path class="st3" d="M177.6,93.7c0,0.1,0,0.2,0,0.3c-0.1,0.3-0.2,0.5-0.4,0.6c-0.2,0.1-0.4,0.2-0.6,0.2c-0.2,0-0.5,0-0.9-0.1
				c-0.4,0-0.7-0.1-0.9-0.1c-1.2,0-2.3,0.3-3.3,0.8c-1,0.5-1.7,1.2-2.3,2.1c-0.5,0.9-0.8,1.9-0.8,3.1v11.2c0,0.3-0.1,0.6-0.3,0.8
				c-0.2,0.2-0.5,0.3-0.8,0.3c-0.3,0-0.6-0.1-0.8-0.3c-0.2-0.2-0.3-0.5-0.3-0.8v-18c0-0.3,0.1-0.6,0.3-0.8s0.5-0.3,0.8-0.3
				c0.3,0,0.6,0.1,0.8,0.3s0.3,0.5,0.3,0.8v2.3c0.7-1.1,1.6-2,2.7-2.7s2.3-1,3.6-1C176.7,92.5,177.6,92.9,177.6,93.7z"/>
		</g>
	</g>
</g>
</svg>
