<?xml version="1.0" encoding="UTF-8"?>
<svg width="247px" height="165px" viewBox="0 0 247 165" version="1.1" xmlns="http://www.w3.org/2000/svg" xmlns:xlink="http://www.w3.org/1999/xlink">
    <!-- Generator: Sketch 47.1 (45422) - http://www.bohemiancoding.com/sketch -->
    <title>midias_sociais</title>
    <desc>Created with Sketch.</desc>
    <defs>
        <linearGradient x1="50%" y1="100%" x2="50%" y2="0%" id="linearGradient-1">
            <stop stop-color="#DB7093" offset="0%"></stop>
            <stop stop-color="#FFC0CB" offset="100%"></stop>
        </linearGradient>
        <rect id="path-2" x="0" y="0" width="247" height="165"></rect>
    </defs>
    <g id="Icons" stroke="none" stroke-width="1" fill="none" fill-rule="evenodd">
        <g id="midias_sociais">
            <mask id="mask-3" fill="white">
                <use xlink:href="#path-2"></use>
            </mask>
            <use id="Mask" fill="url(#linearGradient-1)" xlink:href="#path-2"></use>
            <rect id="Rectangle" fill-opacity="0.1" fill="#000000" mask="url(#mask-3)" x="0" y="14" width="211" height="38"></rect>
            <text id="Mídias-Sociais" mask="url(#mask-3)" font-family="Roboto-Light, Roboto" font-size="30" font-weight="300" fill="#FFFFFF">
                <tspan x="8.34179688" y="42">Mídias Sociais</tspan>
            </text>
            <g id="003-social-media" mask="url(#mask-3)" fill-rule="nonzero">
                <g transform="translate(141.000000, 73.000000)" id="Shape">
                    <path d="M42.4155382,0 L5.85047028,0 C2.63260022,0 0,2.63964503 0,5.86593991 L0,30.7967896 C0,34.0230845 2.63260022,36.6629157 5.85047028,36.6629157 L6.58168623,36.6629157 C7.3860609,36.6629157 10.2381373,37.029502 10.9695389,37.8362154 C13.1633725,39.5959787 11.5546231,38.5693881 14.62599,41.0625103 C14.5528313,40.9891558 18.2824411,44.4355141 18.2824411,41.0625103 L18.2824411,36.6629157 L42.4153525,36.6629157 C45.6330369,36.6629157 48.2658228,34.0232707 48.2658228,30.7967896 L48.2658228,5.86593991 C48.2658228,2.63964503 45.6332226,0 42.4155382,0 Z" fill="#B8D9F2"></path>
                    <path d="M30.5949768,14.1818182 L87.1265422,14.1818182 C90.3568694,14.1818182 93,16.7918027 93,19.9820292 L93,63.483244 C93,66.6732865 90.3570558,69.2834551 87.1265422,69.2834551 L57.0251641,69.2834551 C56.2176289,69.2834551 53.3543462,69.6459222 52.6200708,70.4435709 C50.4176173,72.1835606 47.6275943,74.0686108 44.5441595,76.5337189 C44.6176057,76.4611886 40.8733416,79.8688218 40.8733416,76.5337189 L40.8733416,69.2834551 L30.5949768,69.2834551 C27.3646496,69.2834551 24.721519,66.6734705 24.721519,63.483244 L24.721519,19.9818452 C24.721519,16.7918027 27.3646496,14.1818182 30.5949768,14.1818182 Z" fill="#55ACEE"></path>
                    <path d="M75.3417722,32.3388694 C74.1884896,32.8402656 72.8911841,33.1266997 71.5938785,33.2700077 C72.9632871,32.5538314 73.9723635,31.3360771 74.4769018,29.9751967 C73.2516992,30.691373 71.8101876,31.121297 70.3686759,31.4077311 C69.2153934,30.2616308 67.4856527,29.5454545 65.6117058,29.5454545 C62.0080182,29.5454545 59.1249949,32.1955614 59.1249949,35.4903725 C59.1249949,35.9917686 59.197098,36.4215107 59.269201,36.8512529 C53.8636696,36.6362909 49.0345965,34.201146 45.8633441,30.619719 C45.2867028,31.4792033 44.9984737,32.5536496 44.9984737,33.6280959 C44.9984737,35.7053345 46.1517562,37.495957 47.8814969,38.5702215 C46.8003175,38.5702215 45.791241,38.2837873 44.9263706,37.8540452 L44.9263706,37.9256992 C44.9263706,40.7907681 47.1606496,43.2260948 50.1157759,43.7989631 C49.5391347,43.9422711 48.9624934,44.0139251 48.3860352,44.0139251 C47.9536,44.0139251 47.5932678,43.9422711 47.1608326,43.8706171 C47.9536,46.2342898 50.4041881,47.9532584 53.2151083,48.0249124 C50.9808293,49.6007549 48.1699091,50.6033653 45.1426797,50.6033653 C44.6381415,50.6033653 44.1336033,50.6033653 43.556962,50.5317113 C46.4399853,52.2506799 49.8275468,53.1818182 53.5033374,53.1818182 C65.4676828,53.1818182 72.0264967,44.0853972 72.0264967,36.2063669 L72.0264967,35.4185366 C73.3957223,34.5592342 74.4769018,33.5566237 75.3417722,32.3388694 Z" fill="#FFFFFF"></path>
                </g>
            </g>
        </g>
    </g>
</svg>