<?xml version="1.0" encoding="UTF-8"?>
<svg width="247px" height="165px" viewBox="0 0 247 165" version="1.1" xmlns="http://www.w3.org/2000/svg" xmlns:xlink="http://www.w3.org/1999/xlink">
    <!-- Generator: Sketch 47.1 (45422) - http://www.bohemiancoding.com/sketch -->
    <title>previdencia</title>
    <desc>Created with Sketch.</desc>
    <defs>
        <linearGradient x1="50%" y1="0%" x2="50%" y2="100%" id="linearGradient-1">
            <stop stop-color="#FFDEAD" offset="0%"></stop>
            <stop stop-color="#DEB887" offset="100%"></stop>
        </linearGradient>
        <rect id="path-2" x="0" y="0" width="247" height="165"></rect>
    </defs>
    <g id="Icons" stroke="none" stroke-width="1" fill="none" fill-rule="evenodd">
        <g id="previdencia">
            <mask id="mask-3" fill="white">
                <use xlink:href="#path-2"></use>
            </mask>
            <use id="Mask" fill="url(#linearGradient-1)" xlink:href="#path-2"></use>
            <g id="001-couple" mask="url(#mask-3)">
                <g transform="translate(116.000000, 61.000000)">
                    <path d="M66.5259692,65.0813923 L54.2663789,62 L19.7330815,62 L7.47349117,65.0813923 C3.08128742,66.185377 0,70.1532121 0,74.705047 L0,121.519967 C0,122.889505 1.10425614,124 2.46670264,124 L71.5332974,124 C72.8954741,124 74,122.889777 74,121.519967 L74,74.7053182 C74,70.1532121 70.9184428,66.185377 66.5259692,65.0813923 Z" id="Shape" fill="#0096DC" fill-rule="nonzero"></path>
                    <path d="M66.5259692,66.9873265 L58.7629919,65 C57.2540487,68.7743455 51.4899557,81.3381832 38.4155954,90.6586974 C37.5668317,91.2637642 36.4328985,91.2637642 35.5841348,90.6586974 C22.5097745,81.3381832 16.7459513,68.7746218 15.2367383,65 L7.47349117,66.9876028 C3.08128742,68.1120875 0,72.1536017 0,76.7899601 L0,124.473915 C0,125.868884 1.10425614,127 2.46670264,127 L74,127 L74,76.7902364 C74,72.1536017 70.9184428,68.1118112 66.5259692,66.9873265 Z" id="Shape" fill="#B48764" fill-rule="nonzero"></path>
                    <rect id="Rectangle-path" fill="#D29B6E" fill-rule="nonzero" x="25" y="51" width="25" height="14"></rect>
                    <path d="M60.9996768,25.6518567 L60.9996768,17.956412 C60.9996768,8.03914174 53.1646432,0 43.4997763,0 L33.4999503,0 C23.8350833,0 16.0000497,8.03914174 16.0000497,17.956412 L16.0000497,25.6521373 C13.2386201,25.6521373 11,27.9488746 11,30.7826209 C11,33.6160866 13.2386201,35.9131045 16.0000497,35.9131045 C16.0000497,48.6635598 26.07343,59 38.5,59 C50.92657,59 60.9999503,48.6638404 60.9999503,35.9131045 C63.7613799,35.9131045 66,33.6160866 66,30.7826209 C65.9994531,27.9488746 63.760833,25.6518567 60.9996768,25.6518567 Z" id="Shape" fill="#F0C087" fill-rule="nonzero"></path>
                    <path d="M28.1107843,35.9128239 L28.1107843,17.956412 C28.1107843,8.47234018 35.1223051,0.724990133 43.9997326,0.0648114244 C43.5944146,0.0345099792 43.190166,0 42.7776292,0 L33,0 C23.549887,0 15.8889483,8.03914174 15.8889483,17.956412 L15.8889483,25.6521373 C13.1888778,25.6521373 11,27.9488746 11,30.7826209 C11,33.6160866 13.1888778,35.9131045 15.8889483,35.9131045 C15.8889483,48.6635598 25.7384974,59 37.8889483,59 C40.0117882,59 42.0578956,58.6672452 44,58.078331 C34.82607,55.29649 28.1107843,46.4355619 28.1107843,35.9128239 Z" id="Shape" fill="#E6AF78" fill-rule="nonzero"></path>
                    <path d="M37.000087,47 C34.5299763,47 32.1693477,45.6693232 30.5220117,43.3468357 C29.7084243,42.2036726 29.8635877,40.5242144 30.8637287,39.5974357 C31.8664216,38.6677408 33.3361362,38.8424232 34.1448748,39.9879192 C35.6852807,42.1543883 38.3146382,42.1543883 39.855044,39.9879192 C40.6640379,38.8421315 42.1314556,38.6677408 43.1361902,39.5974357 C44.1365863,40.524506 44.2914946,42.2039642 43.4779072,43.3468357 C41.8305712,45.6693232 39.4699426,47 37.000087,47 Z" id="Shape" fill="#D29B6E" fill-rule="nonzero"></path>
                    <g id="Group" stroke-width="1" fill="none" fill-rule="evenodd" transform="translate(25.000000, 28.000000)">
                        <path d="M2.56419574,8.58691448 C1.21016322,8.58691448 0.114666783,7.35175448 0.114666783,5.82509793 L0.114666783,3.06328138 C0.114666783,1.53662483 1.21016322,0.301464828 2.56419574,0.301464828 C3.91822826,0.301464828 5.0137247,1.53662483 5.0137247,3.06328138 L5.0137247,5.82509793 C5.0137247,7.35145241 3.91822826,8.58691448 2.56419574,8.58691448 Z" id="Shape" fill="#64463C" fill-rule="nonzero"></path>
                        <path d="M22.1601595,8.58691448 C20.806127,8.58691448 19.7106305,7.35175448 19.7106305,5.82509793 L19.7106305,3.06328138 C19.7106305,1.53662483 20.806127,0.301464828 22.1601595,0.301464828 C23.514192,0.301464828 24.6096884,1.53662483 24.6096884,3.06328138 L24.6096884,5.82509793 C24.6096884,7.35145241 23.514192,8.58691448 22.1601595,8.58691448 Z" id="Shape" fill="#64463C" fill-rule="nonzero"></path>
                    </g>
                    <g id="Group" stroke-width="1" fill="none" fill-rule="evenodd" transform="translate(5.000000, 6.000000)">
                        <path d="M13.9772437,5.64697053 C13.9772437,2.68966108 11.7397587,0.292246245 8.9797293,0.292246245 C6.21969989,0.292246245 3.98221492,2.68936825 3.98221492,5.64697053 C3.98221492,6.73776939 4.29022097,7.74979647 4.8130387,8.59608068 C2.17845276,9.38204153 0.234215784,11.9440279 0.234215784,15.0175916 C0.234215784,18.7140088 3.03086703,21.7108506 6.48097211,21.7108506 C9.93107719,21.7108506 12.7277284,18.7140088 12.7277284,15.0175916 C12.7277284,13.2696779 12.0876662,11.6918996 11.0638945,10.5000738 C12.7796549,9.65173972 13.9772437,7.8042632 13.9772437,5.64697053 Z" id="Shape" fill="#D5DCED" fill-rule="nonzero"></path>
                        <path d="M48.9592977,5.64697053 C48.9592977,2.68966108 51.1967827,0.292246245 53.9568121,0.292246245 C56.7168415,0.292246245 58.9543265,2.68936825 58.9543265,5.64697053 C58.9543265,6.73776939 58.6463204,7.74979647 58.1235027,8.59608068 C60.7580886,9.38204153 62.7023256,11.9440279 62.7023256,15.0175916 C62.7023256,18.7140088 59.9056744,21.7108506 56.4555693,21.7108506 C53.0054642,21.7108506 50.208813,18.7140088 50.208813,15.0175916 C50.208813,13.2696779 50.8488752,11.6918996 51.8726469,10.5000738 C50.1568865,9.65173972 48.9592977,7.8042632 48.9592977,5.64697053 Z" id="Shape" fill="#D5DCED" fill-rule="nonzero"></path>
                    </g>
                    <g id="Group" stroke-width="1" fill="none" fill-rule="evenodd" transform="translate(0.000000, 70.000000)">
                        <path d="M11.0704305,9.54664765 L1.88796385,0.0977959992 C0.703181104,1.77186572 0,3.81239572 0,5.9987956 L0,53.4106257 C0,54.7976257 1.09268043,55.9222797 2.44084466,55.9222797 L14.644801,55.9222797 L14.644801,18.4263046 C14.644801,15.0957465 13.3591062,11.9017182 11.0704305,9.54664765 Z" id="Shape" fill="#0096DC" fill-rule="nonzero"></path>
                        <path d="M62.1538414,9.54664765 L71.3363081,0.0977959992 C72.5210909,1.77186572 73.224272,3.81239572 73.224272,5.9987956 L73.224272,55.9222797 L58.579471,55.9222797 L58.579471,18.4263046 C58.579471,15.0957465 59.8651658,11.9017182 62.1538414,9.54664765 Z" id="Shape" fill="#0096DC" fill-rule="nonzero"></path>
                    </g>
                    <path d="M37.5,84 L37.5,84 C36.1194356,84 35,82.9127969 35,81.5713906 L35,67 L40,67 L40,81.5713906 C40,82.9127969 38.8805644,84 37.5,84 Z" id="Shape" fill="#007DC3" fill-rule="nonzero"></path>
                    <g id="Group" stroke-width="1" fill="none" fill-rule="evenodd" transform="translate(19.000000, 59.000000)">
                        <path d="M4.76664478,0.463749559 L17.5082687,6.47369665 L11.9544165,13.459552 C10.9755934,14.6906384 9.02831947,14.719478 8.00909874,13.517746 L0.0390328239,4.11941446 L1.41855654,1.51664903 C2.03489302,0.353798942 3.53397183,-0.117675485 4.76664478,0.463749559 Z" id="Shape" fill="#00AAF0" fill-rule="nonzero"></path>
                        <path d="M30.2496197,0.463749559 L17.5079957,6.47369665 L23.061848,13.459552 C24.0406711,14.6906384 25.987945,14.719478 27.0071657,13.517746 L34.9772316,4.11941446 L33.5977079,1.51664903 C32.9816444,0.353798942 31.4825656,-0.117675485 30.2496197,0.463749559 Z" id="Shape" fill="#00AAF0" fill-rule="nonzero"></path>
                    </g>
                    <g id="Group" stroke-width="1" fill="none" fill-rule="evenodd" transform="translate(74.000000, 59.000000)">
                        <path d="M45.5382193,0.223545788 C49.5026615,0.223545788 52.7167699,3.4342385 52.7167699,7.39505153 C52.7167699,7.54094457 52.6824854,7.6771637 52.6738488,7.82096508 C55.4775899,8.79698429 57.5024704,11.4327329 57.5024704,14.5665573 C57.5024704,18.5271088 54.2886236,21.738063 50.3239197,21.738063 L38.3599303,21.738063 L38.3599303,7.39531298 C38.3596686,3.4342385 41.573777,0.223545788 45.5382193,0.223545788 Z" id="Shape" fill="#C7CFE2" fill-rule="nonzero"></path>
                        <path d="M12.0388396,0.223545788 C8.07439736,0.223545788 4.86028891,3.4342385 4.86028891,7.39505153 C4.86028891,7.54094457 4.89457343,7.6771637 4.90320999,7.82096508 C2.09946894,8.79698429 0.0745884626,11.4327329 0.0745884626,14.5665573 C0.0745884626,18.5271088 3.2884352,21.738063 7.25313913,21.738063 L19.2171285,21.738063 L19.2171285,7.39531298 C19.2173902,3.4342385 16.0032818,0.223545788 12.0388396,0.223545788 Z" id="Shape" fill="#C7CFE2" fill-rule="nonzero"></path>
                    </g>
                    <path d="M128.366734,81.7311319 L114.767266,75.9854153 C113.384422,75.4009958 112.358578,74.1937191 111.931719,72.7417887 L111.714172,67 L92.2855625,67 L92.06775,72.7417887 C91.6414219,74.1939997 90.6153125,75.4012763 89.2322031,75.9854153 L75.6327344,81.7311319 C71.0230781,83.678823 68,88.3951419 68,93.6397672 L68,123.434783 C68,124.851642 69.0872031,126 70.4286094,126 L133.571391,125.998878 C134.912531,125.998878 136,124.85052 136,123.43366 L136,93.6397672 C136,88.3951419 132.976922,83.678823 128.366734,81.7311319 Z" id="Shape" fill="#966D50" fill-rule="nonzero"></path>
                    <path d="M128.366734,80.4200314 L117.739875,76 C113.953125,80.641544 108.311516,83.5949524 102,83.5949524 C95.6882188,83.5949524 90.0466094,80.6412678 86.260125,76 L75.6332656,80.4200314 C71.0230781,82.337413 68,86.980338 68,92.1433479 L68,121.474702 C68,122.869513 69.0874687,124 70.4286094,124 L133.571391,123.999171 C134.912531,123.999171 136,122.868684 136,121.473873 L136,92.1433479 C136,86.980338 132.976922,82.337413 128.366734,80.4200314 Z" id="Shape" fill="#FFDC64" fill-rule="nonzero"></path>
                    <ellipse id="Oval" fill="#D5DCED" fill-rule="nonzero" cx="103.5" cy="39" rx="27.5" ry="28"></ellipse>
                    <path d="M92.8966063,39 C92.8966063,26.6544531 100.482655,16.1965278 111,12.4722335 C108.343273,11.5314852 105.508867,11 102.551697,11 C87.8875546,11 76,23.5359796 76,39 C76,54.4640204 87.8875546,67 102.551697,67 C105.508867,67 108.343537,66.4687932 111,65.5277665 C100.482655,61.8031938 92.8966063,51.3455469 92.8966063,39 Z" id="Shape" fill="#C7CFE2" fill-rule="nonzero"></path>
                    <path d="M104.000134,76 L104.000134,76 C91.8498763,76 82,65.8229457 82,53.2690998 L82,44.8616557 C82,43.8398342 82.6253593,42.9666313 83.5298443,42.5539248 C87.8258138,40.5937072 91.1277321,37.0575254 92.863445,34.8992419 C93.6374574,33.9368126 94.9862977,33.7058737 95.9899739,34.4067013 C108.23862,42.9569628 126,41.1155295 126,50.7434135 L126,53.2690998 C126.000267,65.8232219 116.150391,76 104.000134,76 Z" id="Shape" fill="#C39772" fill-rule="nonzero"></path>
                    <path d="M95.043379,53.2299958 L95.043379,34 C94.4952683,34.1123461 93.9759756,34.3824194 93.5936391,34.8290366 C91.7410194,36.9910068 88.217247,40.5332288 83.632919,42.4967947 C82.6673768,42.9102062 82,43.7849006 82,44.8084675 L82,53.2302726 C82,65.805562 92.5113988,76 105.47831,76 C107.743797,76 109.927394,75.6718166 112,75.0909929 C102.209619,72.3473689 95.043379,63.6081723 95.043379,53.2299958 Z" id="Shape" fill="#B48764" fill-rule="nonzero"></path>
                    <path d="M102.000087,67 C99.5299763,67 97.1693477,65.6695056 95.5220117,63.3473367 C94.7084243,62.2043303 94.8635877,60.5251024 95.8637287,59.5984509 C96.8664216,58.6665508 98.3338394,58.8435418 99.1448748,59.9888808 C100.685281,62.1550528 103.314638,62.1550528 104.855044,59.9888808 C105.664038,58.8432502 107.131456,58.6662592 108.13619,59.5984509 C109.136586,60.525394 109.291495,62.2046219 108.477907,63.3473367 C106.830826,65.6695056 104.470198,67 102.000087,67 Z" id="Shape" fill="#966D50" fill-rule="nonzero"></path>
                    <path d="M97.3309741,53 C96.8844034,53 96.435536,52.8541689 96.0369397,52.549382 C94.9661908,51.7315615 94.6768129,50.075504 95.3943883,48.8513982 C96.8047862,46.4399358 99.2721532,45 101.999552,45 C104.724654,45 107.194318,46.4376025 108.604716,48.8464399 C109.322546,50.0702541 109.035465,51.7266032 107.964461,52.5470487 C106.893712,53.3648693 105.444526,53.0393744 104.726695,51.8152685 C103.655946,49.9871304 100.342902,49.9871304 99.2721532,51.8152685 C98.823541,52.5832148 98.0852958,53 97.3309741,53 Z" id="Shape" fill="#707487" fill-rule="nonzero"></path>
                    <g id="Group" stroke-width="1" fill="none" fill-rule="evenodd" transform="translate(86.000000, 42.000000)">
                        <path d="M7.05665161,14.3455944 C3.16544684,14.3455944 0,11.1773686 0,7.2827478 C0,3.38812698 3.16544684,0.219901235 7.05665161,0.219901235 C10.9478564,0.219901235 14.1133032,3.38812698 14.1133032,7.2827478 C14.1133032,11.1773686 10.9478564,14.3455944 7.05665161,14.3455944 Z" id="Shape" fill="#7F8499" fill-rule="nonzero"></path>
                        <path d="M25.8738747,14.3455944 C21.9826699,14.3455944 18.8172231,11.1773686 18.8172231,7.2827478 C18.8172231,3.38812698 21.9826699,0.219901235 25.8738747,0.219901235 C29.7650795,0.219901235 32.9305263,3.38838448 32.9305263,7.28300529 C32.9305263,11.1776261 29.7650795,14.3455944 25.8738747,14.3455944 Z" id="Shape" fill="#7F8499" fill-rule="nonzero"></path>
                    </g>
                    <g id="Group" stroke-width="1" fill="none" fill-rule="evenodd" transform="translate(90.000000, 48.000000)">
                        <path d="M22.1218479,0.0421350877 C20.7702266,0.0421350877 19.672319,1.26674211 19.672319,2.77434152 C19.672319,4.28194094 20.7702266,5.50654795 22.1218479,5.50654795 C23.4734692,5.50654795 24.5713769,4.28194094 24.5713769,2.77434152 C24.5713769,1.26674211 23.4734692,0.0421350877 22.1218479,0.0421350877 Z" id="Shape" fill="#FFFFFF" fill-rule="nonzero"></path>
                        <path d="M2.52615209,0.0421350877 C1.17453078,0.0421350877 0.0766231304,1.26674211 0.0766231304,2.77434152 C0.0766231304,4.28194094 1.17453078,5.50654795 2.52615209,5.50654795 C3.87777339,5.50654795 4.97568104,4.28194094 4.97568104,2.77434152 C4.97568104,1.26674211 3.87750548,0.0421350877 2.52615209,0.0421350877 Z" id="Shape" fill="#FFFFFF" fill-rule="nonzero"></path>
                    </g>
                    <g id="Group" stroke-width="1" fill="none" fill-rule="evenodd" transform="translate(68.000000, 76.000000)">
                        <path d="M10.0292544,17.8201522 L1.84503574,9.51332027 C0.678447217,11.4254396 -2.84217094e-14,13.6509325 -2.84217094e-14,16.0006942 L-2.84217094e-14,44.6897776 C-2.84217094e-14,46.0537633 1.08940151,47.159756 2.43352017,47.159756 L12.1673347,47.1594858 L12.1673347,23.0594347 C12.1673347,21.0946362 11.3981262,19.209802 10.0292544,17.8201522 Z" id="Shape" fill="#FFC850" fill-rule="nonzero"></path>
                        <path d="M58.1082456,17.8201522 L66.2924643,9.51332027 C67.4590528,11.4254396 68.1375,13.6509325 68.1375,16.0006942 L68.1375,44.6897776 C68.1375,46.0537633 67.0480985,47.159756 65.7039798,47.159756 L55.9701653,47.1594858 L55.9701653,23.0594347 C55.9701653,21.0946362 56.7393738,19.209802 58.1082456,17.8201522 Z" id="Shape" fill="#FFC850" fill-rule="nonzero"></path>
                        <path d="M34.06875,15.0505779 C43.3921425,15.0505779 51.5939279,10.2067944 56.3869752,2.86898939 L49.8407181,0.211257034 C46.0460449,4.75112207 40.3930279,7.63983238 34.06875,7.63983238 C27.744206,7.63983238 22.0911889,4.75085192 18.297048,0.211257034 L11.750791,2.86898939 C16.5435721,10.2067944 24.7453575,15.0505779 34.06875,15.0505779 Z" id="Shape" fill="#FFC850" fill-rule="nonzero"></path>
                    </g>
                </g>
            </g>
            <rect id="Rectangle" fill-opacity="0.1" fill="#000000" mask="url(#mask-3)" x="0" y="14" width="165" height="38"></rect>
            <text id="Previdência" mask="url(#mask-3)" font-family="Roboto-Light, Roboto" font-size="30" font-weight="300" fill="#FFFFFF">
                <tspan x="7.1796875" y="42">Previdência</tspan>
            </text>
        </g>
    </g>
</svg>