<?xml version="1.0" encoding="UTF-8"?>
<svg width="247px" height="165px" viewBox="0 0 247 165" version="1.1" xmlns="http://www.w3.org/2000/svg" xmlns:xlink="http://www.w3.org/1999/xlink">
    <!-- Generator: Sketch 47.1 (45422) - http://www.bohemiancoding.com/sketch -->
    <title>receita</title>
    <desc>Created with Sketch.</desc>
    <defs>
        <linearGradient x1="50%" y1="0%" x2="50%" y2="100%" id="linearGradient-1">
            <stop stop-color="#87CEFA" offset="0%"></stop>
            <stop stop-color="#1E90FF" offset="100%"></stop>
        </linearGradient>
        <rect id="path-2" x="0" y="0" width="247" height="165"></rect>
    </defs>
    <g id="Icons" stroke="none" stroke-width="1" fill="none" fill-rule="evenodd">
        <g id="receita">
            <mask id="mask-3" fill="white">
                <use xlink:href="#path-2"></use>
            </mask>
            <use id="Mask" fill="url(#linearGradient-1)" xlink:href="#path-2"></use>
            <g id="005-money" mask="url(#mask-3)" fill-rule="nonzero">
                <g transform="translate(152.000000, 31.000000)" id="Shape">
                    <path d="M1.96350822,26.2471845 L48.0175925,17.0491425 C49.3829043,16.7730962 50.6571645,17.6930171 50.9300882,18.9807664 L68.9513722,105.809489 C69.224527,107.189253 68.3142421,108.477003 67.0399819,108.752815 L20.894846,117.950857 C19.5295342,118.226904 18.255274,117.306983 17.9823503,116.019234 L0.0523489949,29.1907448 C-0.220805806,27.8109801 0.598427501,26.5232309 1.96350822,26.2471845 Z" fill="#2B8272"></path>
                    <path d="M49.9885518,43.7043668 L45.8589016,23.0227552 C45.7690919,22.3793065 45.0508424,21.919767 44.4224025,22.0117216 L5.99889889,29.8248267 C5.37045899,29.9167813 4.92163848,30.6521845 5.01144817,31.2956332 L9.14109836,51.9772448 C9.23090806,52.6206935 9.94915764,53.080233 10.5775975,52.9882784 C11.2060374,52.8963238 11.6548579,52.1609206 11.5650483,51.5174719 L7.70482713,32.0308031 L43.7043808,24.6772374 L47.5646019,44.1639063 C47.6544116,44.807355 48.3726612,45.2668945 49.0011011,45.1749399 C49.629541,44.9912641 50.0783615,44.3478155 49.9885518,43.7043668 Z" fill="#4B9587"></path>
                    <path d="M14.193411,12.5961353 L61.0471155,8.00631563 C62.4145122,7.91448194 63.5995276,8.83258572 63.7816774,10.2093918 L74.9937286,102.74162 C75.0849192,104.118659 74.1732443,105.312031 72.806079,105.403865 L25.9523746,109.993684 C24.5849779,110.085518 23.3999625,109.167414 23.2178127,107.790608 L12.0057615,15.2581468 C11.9145708,13.9729414 12.9174364,12.6877359 14.193411,12.5961353 Z" fill="#359685"></path>
                    <path d="M55.9479085,12.0557266 C55.8590708,11.4454191 55.3262699,10.92233 54.6157936,11.0095484 L16.0753274,14.671172 C15.4536888,14.7583904 14.920888,15.2814795 15.0097257,15.9790054 L17.0520915,35.9442734 C17.1409292,36.5545809 17.6737301,37.07767 18.3842064,36.9904516 C19.005845,36.9032332 19.5386459,36.3801441 19.4498082,35.6826182 L17.5848923,16.9379652 L53.7276418,13.5377754 L55.5925576,32.2824284 C55.6813954,32.8927359 56.2141962,33.415825 56.9246726,33.3286066 C57.5463112,33.2413882 58.079112,32.7182991 57.9902743,32.0207732 C57.9904998,32.0209946 55.9479085,12.0557266 55.9479085,12.0557266 Z" fill="#53A697"></path>
                    <path d="M30.5060898,0 L77.4939102,0 C78.8364908,0 80,1.10078063 80,2.56864341 L80,98.4313566 C80,99.8074488 78.9260264,101 77.4939102,101 L30.5060898,101 C29.1635092,101 28,99.8992194 28,98.4313566 L28,2.56864341 C28.0002272,1.10078063 29.0742008,0 30.5060898,0 Z" fill="#3DB39E"></path>
                    <path d="M34.5835608,50.9998832 C34.5835608,61.2118792 42.6459471,69.3997898 52.5,69.3997898 C62.3540529,69.3997898 70.4164392,61.1198435 70.4164392,50.9998832 C70.4164392,40.8799229 62.3540529,32.5999766 52.5,32.5999766 C42.6459471,32.5999766 34.5835608,40.8799229 34.5835608,50.9998832 Z M42.914572,50.5399381 L44.2583788,50.5399381 C44.5272312,48.239979 45.7811931,46.4920007 47.125,45.7559484 C47.3042349,45.6639126 47.5728598,45.5718769 47.7520947,45.5718769 C48.4688069,45.5718769 49.0062841,46.1238577 49.0062841,46.7678743 C49.0062841,47.3198552 48.7374318,47.5959624 48.4688069,47.7798003 C47.4834698,48.7917262 46.6771402,49.9877237 46.6771402,51.6438998 C46.6771402,53.7597874 47.3938524,54.771947 48.8270492,54.771947 C52.3207651,54.771947 50.7083333,46.2158935 56.4415757,46.2158935 C58.5914847,46.2158935 60.3831514,47.5039267 60.7416212,50.5399381 L62.085428,50.5399381 C62.7125227,50.5399381 63.25,50.9998832 63.25,51.6438998 C63.25,52.2879164 62.7125227,52.7478615 62.085428,52.7478615 L60.7416212,52.7478615 C60.4727688,54.5878755 59.7562841,56.1517823 58.5917122,56.9798704 C58.4124773,57.1639418 58.1438524,57.2559776 57.7853825,57.2559776 C57.0686704,57.2559776 56.5311931,56.7039967 56.5311931,55.9679444 C56.5311931,55.600035 56.710428,55.3239278 57.0686704,54.9560185 C57.7853825,54.2199661 58.3228598,53.0239687 58.3228598,51.6441334 C58.3228598,49.7120836 57.4271402,48.9760313 56.4415757,48.9760313 C53.3061022,48.9760313 54.7395265,57.5320848 48.8270492,57.5320848 C46.2290529,57.5320848 44.5270037,55.8761423 44.1687614,52.7480951 L42.8249545,52.7480951 C42.1978598,52.7480951 41.6603825,52.28815 41.6603825,51.6441334 C41.75,50.9998832 42.2874773,50.5399381 42.914572,50.5399381 Z M72.6559657,78.5998598 C71.9392535,78.5998598 71.3121588,79.2438764 71.3121588,79.9799288 L71.3121588,94.2398622 L33.6876137,94.2398622 L33.6876137,79.9799288 C33.6876137,79.2438764 33.060519,78.5998598 32.3438069,78.5998598 C31.6270947,78.5998598 31,79.2438764 31,79.9799288 L31,95.6199311 C31,96.3559834 31.6270947,97 32.3438069,97 L72.6559657,97 C73.3726778,97 73.9997725,96.3559834 73.9997725,95.6199311 L73.9997725,79.9799288 C73.9997725,79.2438764 73.3726778,78.5998598 72.6559657,78.5998598 Z M72.6559657,5 L32.3440343,5 C31.6273222,5 31.0002275,5.64401659 31.0002275,6.38006891 L31.0002275,22.0200712 C31.0002275,22.7561236 31.6273222,23.4001402 32.3440343,23.4001402 C33.0607465,23.4001402 33.6878412,22.7561236 33.6878412,22.0200712 L33.6878412,7.76013782 L71.3123863,7.76013782 L71.3123863,22.0200712 C71.3123863,22.7561236 71.939481,23.4001402 72.6561931,23.4001402 C73.3729053,23.4001402 74,22.7561236 74,22.0200712 L74,6.38006891 C73.9997725,5.64401659 73.3726778,5 72.6559657,5 Z M49.8126137,82.2798879 C49.8126137,83.8437947 50.9771857,85.0397921 52.5,85.0397921 C54.0228143,85.0397921 55.1873863,83.8437947 55.1873863,82.2798879 C55.1873863,80.7159811 54.0228143,79.5199836 52.5,79.5199836 C50.9771857,79.5199836 49.8126137,80.8080168 49.8126137,82.2798879 Z M55.1873863,19.7201121 C55.1873863,18.1562053 54.0228143,16.9602079 52.5,16.9602079 C50.9771857,16.9602079 49.8126137,18.1562053 49.8126137,19.7201121 C49.8126137,21.2840189 50.9771857,22.4800164 52.5,22.4800164 C54.0228143,22.4800164 55.1873863,21.2840189 55.1873863,19.7201121 Z" fill="#81CEC0"></path>
                </g>
            </g>
            <rect id="Rectangle" fill-opacity="0.1" fill="#000000" mask="url(#mask-3)" x="0" y="14" width="138" height="38"></rect>
            <text id="Receita" mask="url(#mask-3)" font-family="Roboto-Light, Roboto" font-size="30" font-weight="300" fill="#FFFFFF">
                <tspan x="15.0375977" y="43">Receita</tspan>
            </text>
        </g>
    </g>
</svg>