<?xml version="1.0" encoding="UTF-8"?>
<svg width="247px" height="165px" viewBox="0 0 247 165" version="1.1" xmlns="http://www.w3.org/2000/svg" xmlns:xlink="http://www.w3.org/1999/xlink">
    <!-- Generator: Sketch 47.1 (45422) - http://www.bohemiancoding.com/sketch -->
    <title>saude</title>
    <desc>Created with Sketch.</desc>
    <defs>
        <linearGradient x1="50%" y1="0%" x2="50%" y2="100%" id="linearGradient-1">
            <stop stop-color="#D3D3D3" offset="0%"></stop>
            <stop stop-color="#A9A9A9" offset="100%"></stop>
        </linearGradient>
        <rect id="path-2" x="0" y="0" width="247" height="165"></rect>
    </defs>
    <g id="Icons" stroke="none" stroke-width="1" fill="none" fill-rule="evenodd">
        <g id="saude">
            <mask id="mask-3" fill="white">
                <use xlink:href="#path-2"></use>
            </mask>
            <use id="Mask" fill="url(#linearGradient-1)" xlink:href="#path-2"></use>
            <rect id="Rectangle" fill-opacity="0.1" fill="#000000" mask="url(#mask-3)" x="0" y="14" width="124" height="38"></rect>
            <text id="Saúde" mask="url(#mask-3)" font-family="Roboto-Light, Roboto" font-size="30" font-weight="300" fill="#FFFFFF">
                <tspan x="12.2573242" y="42">Saúde</tspan>
            </text>
            <g id="008-hospital" mask="url(#mask-3)" fill-rule="nonzero">
                <g transform="translate(124.000000, 34.000000)" id="Shape">
                    <path d="M75.5,0 C117.19502,0 151,33.8049802 151,75.5 C151,117.190167 117.19502,151 75.5,151 C33.8049802,151 0,117.194481 0,75.5 C0,33.8055194 33.8001271,0 75.5,0 Z" fill="#EBEBEB"></path>
                    <path d="M42.7540703,61.7718506 L61.821908,61.7718506 L61.821908,42.7506786 C61.821908,40.1286037 63.9449586,38 66.5662097,38 L85.5434162,38 C88.1603256,38 90.2828335,40.1280608 90.2828335,42.7506786 L90.2828335,61.7675076 L109.250814,61.7675076 C111.876949,61.7675076 114,63.8912255 114,66.5181862 L114,85.5252436 C114,88.1570902 111.876949,90.285151 109.250814,90.285151 L90.2828335,90.285151 L90.2828335,109.249321 C90.2828335,111.876282 88.1597829,114 85.5434162,114 L66.5662097,114 C63.9449586,114 61.821908,111.876282 61.821908,109.249321 L61.821908,90.285151 L42.7540703,90.285151 C40.1279349,90.285151 38,88.1570902 38,85.5252436 L38,66.5181862 C38,63.8955684 40.1279349,61.7718506 42.7540703,61.7718506 Z" fill="#E2574C"></path>
                </g>
            </g>
        </g>
    </g>
</svg>