<?xml version="1.0" encoding="UTF-8"?>
<svg width="247px" height="165px" viewBox="0 0 247 165" version="1.1" xmlns="http://www.w3.org/2000/svg" xmlns:xlink="http://www.w3.org/1999/xlink">
    <!-- Generator: Sketch 47.1 (45422) - http://www.bohemiancoding.com/sketch -->
    <title>trabalho</title>
    <desc>Created with Sketch.</desc>
    <defs>
        <linearGradient x1="50%" y1="0%" x2="50%" y2="100%" id="linearGradient-1">
            <stop stop-color="#FFDEAD" offset="0%"></stop>
            <stop stop-color="#DEB887" offset="100%"></stop>
        </linearGradient>
        <rect id="path-2" x="0" y="0" width="247" height="165"></rect>
    </defs>
    <g id="Icons" stroke="none" stroke-width="1" fill="none" fill-rule="evenodd">
        <g id="trabalho">
            <mask id="mask-3" fill="white">
                <use xlink:href="#path-2"></use>
            </mask>
            <use id="Mask" fill="url(#linearGradient-1)" xlink:href="#path-2"></use>
            <g id="004-clipboard" mask="url(#mask-3)" fill-rule="nonzero">
                <g transform="translate(130.000000, 52.000000)" id="Shape">
                    <path d="M8.85722317,9 L115.142777,9 C120.014137,9 124,12.9598659 124,17.8000745 L124,132.199926 C124,137.039855 120.014418,141 115.142777,141 L8.85722317,141 C3.98586287,141 0,137.040134 0,132.199926 L0,17.8000745 C0.000281110295,12.9598659 3.98586287,9 8.85722317,9 Z" fill="#E2574C"></path>
                    <path d="M115.143058,9 L8.85722317,9 C3.98586287,9 0,12.8767969 0,17.6154688 L0,23 C0,18.2616016 3.98558176,14.3845313 8.85722317,14.3845313 L115.142777,14.3845313 C120.014137,14.3845313 124,18.2613281 124,23 L124,17.6151953 C124,12.8767969 120.014418,9 115.143058,9 Z" fill="#D05046"></path>
                    <path d="M21.3809921,24 L104.619008,24 C107.028637,24 109,25.9760197 109,28.3913407 L109,120.608659 C109,123.02398 107.028637,125 104.619008,125 L21.3809921,125 C18.971363,125 17,123.02398 17,120.608659 L17,28.3913407 C17,25.9760197 18.971363,24 21.3809921,24 Z" fill="#F0DDAB"></path>
                    <path d="M28.1875174,17 L93.8124826,17 C95.01552,17 96,17.9563444 96,19.125 L96,27.625 C96,31.1312365 93.0468377,34 89.4374479,34 L32.5625521,34 C28.9531623,34 26,31.1312365 26,27.625 L26,19.125 C26,17.9563444 26.9842023,17 28.1875174,17 Z" fill="#CCD0D2"></path>
                    <path d="M42.0345969,55.4545969 L89.8275672,55.4545969 C91.0223087,55.4545969 92,54.4522136 92,53.2272984 C92,52.0023833 91.0223087,51 89.8275672,51 L42.0345969,51 C40.8398554,51 39.8621641,52.0023833 39.8621641,53.2272984 C39.8621641,54.4522136 40.8395796,55.4545969 42.0345969,55.4545969 Z M89.8275672,62.1362094 L42.0345969,62.1362094 C40.8398554,62.1362094 39.8621641,63.1385927 39.8621641,64.3635078 C39.8621641,65.588423 40.8398554,66.5908063 42.0345969,66.5908063 L89.8275672,66.5908063 C91.0223087,66.5908063 92,65.588423 92,64.3635078 C92,63.1385927 91.0223087,62.1362094 89.8275672,62.1362094 Z M89.8275672,73.2727016 L42.0345969,73.2727016 C40.8398554,73.2727016 39.8621641,74.2750848 39.8621641,75.5 C39.8621641,76.7249152 40.8398554,77.7272984 42.0345969,77.7272984 L89.8275672,77.7272984 C91.0223087,77.7272984 92,76.7249152 92,75.5 C92,74.2750848 91.0223087,73.2727016 89.8275672,73.2727016 Z M33.3448656,51 L31.1724328,51 C29.9776913,51 29,52.0023833 29,53.2272984 C29,54.4522136 29.9776913,55.4545969 31.1724328,55.4545969 L33.3448656,55.4545969 C34.5396071,55.4545969 35.5172984,54.4522136 35.5172984,53.2272984 C35.5172984,52.0021005 34.5396071,51 33.3448656,51 Z M33.3448656,62.1362094 L31.1724328,62.1362094 C29.9776913,62.1362094 29,63.1385927 29,64.3635078 C29,65.588423 29.9776913,66.5908063 31.1724328,66.5908063 L33.3448656,66.5908063 C34.5396071,66.5908063 35.5172984,65.588423 35.5172984,64.3635078 C35.5172984,63.1385927 34.5396071,62.1362094 33.3448656,62.1362094 Z M33.3448656,73.2727016 L31.1724328,73.2727016 C29.9776913,73.2727016 29,74.2750848 29,75.5 C29,76.7249152 29.9776913,77.7272984 31.1724328,77.7272984 L33.3448656,77.7272984 C34.5396071,77.7272984 35.5172984,76.7249152 35.5172984,75.5 C35.5172984,74.2750848 34.5396071,73.2727016 33.3448656,73.2727016 Z M89.8275672,84.4091937 L42.0345969,84.4091937 C40.8398554,84.4091937 39.8621641,85.411577 39.8621641,86.6364922 C39.8621641,87.8614073 40.8398554,88.8637906 42.0345969,88.8637906 L89.8275672,88.8637906 C91.0223087,88.8637906 92,87.8614073 92,86.6364922 C92,85.411577 91.0223087,84.4091937 89.8275672,84.4091937 Z M89.8275672,95.5454031 L42.0345969,95.5454031 C40.8398554,95.5454031 39.8621641,96.5477864 39.8621641,97.7727016 C39.8621641,98.9976167 40.8398554,100 42.0345969,100 L89.8275672,100 C91.0223087,100 92,98.9976167 92,97.7727016 C92,96.5477864 91.0223087,95.5454031 89.8275672,95.5454031 Z M33.3448656,84.4091937 L31.1724328,84.4091937 C29.9776913,84.4091937 29,85.411577 29,86.6364922 C29,87.8614073 29.9776913,88.8637906 31.1724328,88.8637906 L33.3448656,88.8637906 C34.5396071,88.8637906 35.5172984,87.8614073 35.5172984,86.6364922 C35.5172984,85.411577 34.5396071,84.4091937 33.3448656,84.4091937 Z M33.3448656,95.5454031 L31.1724328,95.5454031 C29.9776913,95.5454031 29,96.5477864 29,97.7727016 C29,98.9976167 29.9776913,100 31.1724328,100 L33.3448656,100 C34.5396071,100 35.5172984,98.9976167 35.5172984,97.7727016 C35.5172984,96.5477864 34.5396071,95.5454031 33.3448656,95.5454031 Z" fill="#D8C69A"></path>
                    <path d="M47.4737275,0 L75.5262725,0 C79.0868089,0 82,2.86876349 82,6.375 L82,17 L41,17 L41,6.375 C41,2.86876349 43.9131911,0 47.4737275,0 Z" fill="#CCD0D2"></path>
                    <path d="M26,19.6666667 L26,25 L96,25 L96,19.6666667 C96,18.2001185 95.01552,17 93.8124826,17 L28.1875174,17 C26.9842023,17 26,18.2001185 26,19.6666667 Z" fill="#BCC0C2"></path>
                    <polygon fill="#AEB1B3" points="41 14 82 14 82 19 41 19"></polygon>
                </g>
            </g>
            <rect id="Rectangle" fill-opacity="0.1" fill="#000000" mask="url(#mask-3)" x="0" y="14" width="138" height="38"></rect>
            <text id="Trabalho" mask="url(#mask-3)" font-family="Roboto-Light, Roboto" font-size="30" font-weight="300" fill="#FFFFFF">
                <tspan x="6.4609375" y="43">Trabalho</tspan>
            </text>
        </g>
    </g>
</svg>